<?xml version="1.0" encoding="UTF-8" standalone="no"?>
<!DOCTYPE svg PUBLIC "-//W3C//DTD SVG 1.1//EN"
 "http://www.w3.org/Graphics/SVG/1.1/DTD/svg11.dtd">
<!-- Generated by graphviz version 2.26.3 (20100126.1600)
 -->
<!-- Title: G Pages: 1 -->
<svg width="926pt" height="1376pt"
 viewBox="0.00 0.00 926.00 1376.00" xmlns="http://www.w3.org/2000/svg" xmlns:xlink="http://www.w3.org/1999/xlink">
<g id="graph1" class="graph" transform="scale(1 1) rotate(0) translate(4 1372)">
<title>G</title>
<polygon fill="white" stroke="white" points="-4,5 -4,-1372 923,-1372 923,5 -4,5"/>
<g id="graph2" class="cluster"><title>cluster_global</title>
<polyline fill="none" stroke="gray" points="20,-206 898,-206 "/>
<path fill="none" stroke="gray" d="M898,-206C904,-206 910,-212 910,-218"/>
<polyline fill="none" stroke="gray" points="910,-218 910,-1348 "/>
<path fill="none" stroke="gray" d="M910,-1348C910,-1354 904,-1360 898,-1360"/>
<polyline fill="none" stroke="gray" points="898,-1360 20,-1360 "/>
<path fill="none" stroke="gray" d="M20,-1360C14,-1360 8,-1354 8,-1348"/>
<polyline fill="none" stroke="gray" points="8,-1348 8,-218 "/>
<path fill="none" stroke="gray" d="M8,-218C8,-212 14,-206 20,-206"/>
<text text-anchor="middle" x="459" y="-1346.1" font-family="Times Roman,serif" font-size="11.00" fill="gray">global</text>
</g>
<!-- \\kyConfig -->
<g id="node2" class="node"><title>\\kyConfig</title>
<a xlink:href="kyConfig.html" xlink:title="kyConfig" target="_parent">
<polygon fill="none" stroke="black" points="844,-1330 774,-1330 774,-1294 844,-1294 844,-1330"/>
<text text-anchor="middle" x="809" y="-1308.6" font-family="Courier,monospace" font-size="11.00">kyConfig</text>
</a>
</g>
<!-- \\kyCustomField -->
<g id="node3" class="node"><title>\\kyCustomField</title>
<a xlink:href="kyCustomField.html" xlink:title="kyCustomField" target="_parent">
<polygon fill="none" stroke="black" points="341,-1276 237,-1276 237,-1240 341,-1240 341,-1276"/>
<text text-anchor="middle" x="289" y="-1254.6" font-family="Courier,monospace" font-size="11.00">kyCustomField</text>
</a>
</g>
<!-- \\kyObjectBase -->
<g id="node18" class="node"><title>\\kyObjectBase</title>
<a xlink:href="kyObjectBase.html" xlink:title="kyObjectBase" target="_parent">
<polygon fill="none" stroke="black" points="114,-790 16,-790 16,-754 114,-754 114,-790"/>
<text text-anchor="middle" x="65" y="-768.6" font-family="Courier,monospace" font-size="11.00">kyObjectBase</text>
</a>
</g>
<!-- \\kyCustomField&#45;&gt;\\kyObjectBase -->
<g id="edge3" class="edge"><title>\\kyCustomField&#45;&gt;\\kyObjectBase</title>
<path fill="none" stroke="black" d="M236.775,-1254.96C218.591,-1251.38 199.408,-1244.39 186,-1231 123.661,-1168.75 81.0492,-890.308 68.6968,-800.22"/>
<polygon fill="none" stroke="black" points="72.1497,-799.636 67.3411,-790.195 65.2128,-800.574 72.1497,-799.636"/>
</g>
<!-- \\kyCustomFieldDate -->
<g id="node4" class="node"><title>\\kyCustomFieldDate</title>
<a xlink:href="kyCustomFieldDate.html" xlink:title="kyCustomFieldDate" target="_parent">
<polygon fill="none" stroke="black" points="619,-1168 489,-1168 489,-1132 619,-1132 619,-1168"/>
<text text-anchor="middle" x="554" y="-1146.6" font-family="Courier,monospace" font-size="11.00">kyCustomFieldDate</text>
</a>
</g>
<!-- \\kyCustomFieldDate&#45;&gt;\\kyCustomField -->
<g id="edge5" class="edge"><title>\\kyCustomFieldDate&#45;&gt;\\kyCustomField</title>
<path fill="none" stroke="black" d="M488.058,-1166.83C479.782,-1169.79 471.573,-1173.18 464,-1177 428.292,-1195.03 428.019,-1213.6 392,-1231 379.275,-1237.15 364.965,-1242.03 351.151,-1245.86"/>
<polygon fill="none" stroke="black" points="349.998,-1242.54 341.21,-1248.46 351.771,-1249.31 349.998,-1242.54"/>
</g>
<!-- \\kyCustomFieldDefinition -->
<g id="node5" class="node"><title>\\kyCustomFieldDefinition</title>
<a xlink:href="kyCustomFieldDefinition.html" xlink:title="kyCustomFieldDefinition" target="_parent">
<polygon fill="none" stroke="black" points="375,-1330 203,-1330 203,-1294 375,-1294 375,-1330"/>
<text text-anchor="middle" x="289" y="-1308.6" font-family="Courier,monospace" font-size="11.00">kyCustomFieldDefinition</text>
</a>
</g>
<!-- \\kyCustomFieldDefinition&#45;&gt;\\kyObjectBase -->
<g id="edge7" class="edge"><title>\\kyCustomFieldDefinition&#45;&gt;\\kyObjectBase</title>
<path fill="none" stroke="black" d="M202.806,-1297.55C196.624,-1294.16 190.905,-1290.03 186,-1285 116.934,-1214.2 78.2317,-897.186 67.8602,-800.251"/>
<polygon fill="none" stroke="black" points="71.3143,-799.629 66.7872,-790.05 64.3527,-800.362 71.3143,-799.629"/>
</g>
<!-- \\kyCustomFieldFile -->
<g id="node6" class="node"><title>\\kyCustomFieldFile</title>
<a xlink:href="kyCustomFieldFile.html" xlink:title="kyCustomFieldFile" target="_parent">
<polygon fill="none" stroke="black" points="619,-1330 489,-1330 489,-1294 619,-1294 619,-1330"/>
<text text-anchor="middle" x="554" y="-1308.6" font-family="Courier,monospace" font-size="11.00">kyCustomFieldFile</text>
</a>
</g>
<!-- \\kyCustomFieldFile&#45;&gt;\\kyCustomField -->
<g id="edge9" class="edge"><title>\\kyCustomFieldFile&#45;&gt;\\kyCustomField</title>
<path fill="none" stroke="black" d="M488.494,-1298.65C446.582,-1290.11 392.534,-1279.1 351.268,-1270.69"/>
<polygon fill="none" stroke="black" points="351.833,-1267.23 341.336,-1268.66 350.435,-1274.09 351.833,-1267.23"/>
</g>
<!-- \\kyCustomFieldGroupBase -->
<g id="node7" class="node"><title>\\kyCustomFieldGroupBase</title>
<a xlink:href="kyCustomFieldGroupBase.html" xlink:title="kyCustomFieldGroupBase" target="_parent">
<polygon fill="none" stroke="black" points="371,-736 207,-736 207,-700 371,-700 371,-736"/>
<text text-anchor="middle" x="289" y="-714.6" font-family="Courier,monospace" font-size="11.00">kyCustomFieldGroupBase</text>
</a>
</g>
<!-- \\kyCustomFieldGroupBase&#45;&gt;\\kyObjectBase -->
<g id="edge11" class="edge"><title>\\kyCustomFieldGroupBase&#45;&gt;\\kyObjectBase</title>
<path fill="none" stroke="black" d="M214.1,-736.056C184.762,-743.129 151.595,-751.124 124.005,-757.776"/>
<polygon fill="none" stroke="black" points="123.011,-754.415 114.11,-760.161 124.651,-761.22 123.011,-754.415"/>
</g>
<!-- \\kyCustomFieldLinkedSelect -->
<g id="node8" class="node"><title>\\kyCustomFieldLinkedSelect</title>
<a xlink:href="kyCustomFieldLinkedSelect.html" xlink:title="kyCustomFieldLinkedSelect" target="_parent">
<polygon fill="none" stroke="black" points="901,-1276 717,-1276 717,-1240 901,-1240 901,-1276"/>
<text text-anchor="middle" x="809" y="-1254.6" font-family="Courier,monospace" font-size="11.00">kyCustomFieldLinkedSelect</text>
</a>
</g>
<!-- \\kyCustomFieldSelect -->
<g id="node11" class="node"><title>\\kyCustomFieldSelect</title>
<a xlink:href="kyCustomFieldSelect.html" xlink:title="kyCustomFieldSelect" target="_parent">
<polygon fill="none" stroke="black" points="626,-1276 482,-1276 482,-1240 626,-1240 626,-1276"/>
<text text-anchor="middle" x="554" y="-1254.6" font-family="Courier,monospace" font-size="11.00">kyCustomFieldSelect</text>
</a>
</g>
<!-- \\kyCustomFieldLinkedSelect&#45;&gt;\\kyCustomFieldSelect -->
<g id="edge13" class="edge"><title>\\kyCustomFieldLinkedSelect&#45;&gt;\\kyCustomFieldSelect</title>
<path fill="none" stroke="black" d="M716.218,-1258C690.31,-1258 662.331,-1258 637.025,-1258"/>
<polygon fill="none" stroke="black" points="636.73,-1254.5 626.73,-1258 636.73,-1261.5 636.73,-1254.5"/>
</g>
<!-- \\kyCustomFieldMultiSelect -->
<g id="node9" class="node"><title>\\kyCustomFieldMultiSelect</title>
<a xlink:href="kyCustomFieldMultiSelect.html" xlink:title="kyCustomFieldMultiSelect" target="_parent">
<polygon fill="none" stroke="black" points="643,-1222 465,-1222 465,-1186 643,-1186 643,-1222"/>
<text text-anchor="middle" x="554" y="-1200.6" font-family="Courier,monospace" font-size="11.00">kyCustomFieldMultiSelect</text>
</a>
</g>
<!-- \\kyCustomFieldMultiSelect&#45;&gt;\\kyCustomField -->
<g id="edge15" class="edge"><title>\\kyCustomFieldMultiSelect&#45;&gt;\\kyCustomField</title>
<path fill="none" stroke="black" d="M465.39,-1222.06C427.867,-1229.7 385.05,-1238.43 350.998,-1245.37"/>
<polygon fill="none" stroke="black" points="350.283,-1241.94 341.184,-1247.37 351.681,-1248.8 350.283,-1241.94"/>
</g>
<!-- \\kyCustomFieldOption -->
<g id="node10" class="node"><title>\\kyCustomFieldOption</title>
<a xlink:href="kyCustomFieldOption.html" xlink:title="kyCustomFieldOption" target="_parent">
<polygon fill="none" stroke="black" points="361,-1222 217,-1222 217,-1186 361,-1186 361,-1222"/>
<text text-anchor="middle" x="289" y="-1200.6" font-family="Courier,monospace" font-size="11.00">kyCustomFieldOption</text>
</a>
</g>
<!-- \\kyCustomFieldOption&#45;&gt;\\kyObjectBase -->
<g id="edge17" class="edge"><title>\\kyCustomFieldOption&#45;&gt;\\kyObjectBase</title>
<path fill="none" stroke="black" d="M216.449,-1195.09C205.198,-1191.02 194.507,-1185.22 186,-1177 130.397,-1123.25 84.3345,-883.495 69.7911,-800.436"/>
<polygon fill="none" stroke="black" points="73.2163,-799.703 68.0622,-790.446 66.3188,-800.897 73.2163,-799.703"/>
</g>
<!-- \\kyCustomFieldSelect&#45;&gt;\\kyCustomField -->
<g id="edge19" class="edge"><title>\\kyCustomFieldSelect&#45;&gt;\\kyCustomField</title>
<path fill="none" stroke="black" d="M481.237,-1258C440.447,-1258 390.105,-1258 351.17,-1258"/>
<polygon fill="none" stroke="black" points="351.021,-1254.5 341.021,-1258 351.021,-1261.5 351.021,-1254.5"/>
</g>
<!-- \\kyDepartment -->
<g id="node12" class="node"><title>\\kyDepartment</title>
<a xlink:href="kyDepartment.html" xlink:title="kyDepartment" target="_parent">
<polygon fill="none" stroke="black" points="338,-1168 240,-1168 240,-1132 338,-1132 338,-1168"/>
<text text-anchor="middle" x="289" y="-1146.6" font-family="Courier,monospace" font-size="11.00">kyDepartment</text>
</a>
</g>
<!-- \\kyDepartment&#45;&gt;\\kyObjectBase -->
<g id="edge21" class="edge"><title>\\kyDepartment&#45;&gt;\\kyObjectBase</title>
<path fill="none" stroke="black" d="M239.945,-1146.92C221.069,-1143.44 200.573,-1136.51 186,-1123 137.006,-1077.58 88.0153,-875.551 71.1504,-800.338"/>
<polygon fill="none" stroke="black" points="74.4828,-799.199 68.8991,-790.195 67.6491,-800.715 74.4828,-799.199"/>
</g>
<!-- \\kyException -->
<g id="node13" class="node"><title>\\kyException</title>
<a xlink:href="kyHelpers.html" xlink:title="kyException" target="_parent">
<polygon fill="none" stroke="black" points="854,-304 764,-304 764,-268 854,-268 854,-304"/>
<text text-anchor="middle" x="809" y="-282.6" font-family="Courier,monospace" font-size="11.00">kyException</text>
</a>
</g>
<!-- \\Exception -->
<g id="node48" class="node"><title>\\Exception</title>
<ellipse fill="none" stroke="black" cx="554" cy="-180" rx="61.8445" ry="18"/>
<text text-anchor="middle" x="554" y="-175.9" font-family="Times Roman,serif" font-size="14.00" fill="gray">\Exception</text>
</g>
<!-- \\kyException&#45;&gt;\\Exception -->
<g id="edge23" class="edge"><title>\\kyException&#45;&gt;\\Exception</title>
<path fill="none" stroke="black" d="M763.186,-276.47C747.705,-272.278 730.644,-266.551 716,-259 679.725,-240.294 680.667,-219.925 644,-202 635.722,-197.953 626.643,-194.616 617.535,-191.874"/>
<polygon fill="none" stroke="black" points="618.251,-188.44 607.678,-189.126 616.371,-195.183 618.251,-188.44"/>
</g>
<!-- \\kyUsort -->
<g id="node14" class="node"><title>\\kyUsort</title>
<a xlink:href="kyHelpers.html" xlink:title="kyUsort" target="_parent">
<polygon fill="none" stroke="black" points="841,-601 777,-601 777,-565 841,-565 841,-601"/>
<text text-anchor="middle" x="809" y="-579.6" font-family="Courier,monospace" font-size="11.00">kyUsort</text>
</a>
</g>
<!-- \\kyNewsCategory -->
<g id="node15" class="node"><title>\\kyNewsCategory</title>
<a xlink:href="kyNewsCategory.html" xlink:title="kyNewsCategory" target="_parent">
<polygon fill="none" stroke="black" points="344,-1114 234,-1114 234,-1078 344,-1078 344,-1114"/>
<text text-anchor="middle" x="289" y="-1092.6" font-family="Courier,monospace" font-size="11.00">kyNewsCategory</text>
</a>
</g>
<!-- \\kyNewsCategory&#45;&gt;\\kyObjectBase -->
<g id="edge25" class="edge"><title>\\kyNewsCategory&#45;&gt;\\kyObjectBase</title>
<path fill="none" stroke="black" d="M233.423,-1091.08C216.604,-1087.22 199.132,-1080.52 186,-1069 103.455,-996.581 76.2796,-859.468 68.1524,-800.326"/>
<polygon fill="none" stroke="black" points="71.5997,-799.692 66.8474,-790.223 64.6574,-800.589 71.5997,-799.692"/>
</g>
<!-- \\kyNewsItem -->
<g id="node16" class="node"><title>\\kyNewsItem</title>
<a xlink:href="kyNewsItem.html" xlink:title="kyNewsItem" target="_parent">
<polygon fill="none" stroke="black" points="331,-1060 247,-1060 247,-1024 331,-1024 331,-1060"/>
<text text-anchor="middle" x="289" y="-1038.6" font-family="Courier,monospace" font-size="11.00">kyNewsItem</text>
</a>
</g>
<!-- \\kyNewsItem&#45;&gt;\\kyObjectBase -->
<g id="edge27" class="edge"><title>\\kyNewsItem&#45;&gt;\\kyObjectBase</title>
<path fill="none" stroke="black" d="M246.998,-1039.04C226.723,-1035.74 203.141,-1028.93 186,-1015 116.182,-958.242 83.2032,-850.988 70.9474,-800.124"/>
<polygon fill="none" stroke="black" points="74.3069,-799.117 68.6409,-790.165 67.4874,-800.697 74.3069,-799.117"/>
</g>
<!-- \\kyNewsSubscriber -->
<g id="node17" class="node"><title>\\kyNewsSubscriber</title>
<a xlink:href="kyNewsSubscriber.html" xlink:title="kyNewsSubscriber" target="_parent">
<polygon fill="none" stroke="black" points="351,-1006 227,-1006 227,-970 351,-970 351,-1006"/>
<text text-anchor="middle" x="289" y="-984.6" font-family="Courier,monospace" font-size="11.00">kyNewsSubscriber</text>
</a>
</g>
<!-- \\kyNewsSubscriber&#45;&gt;\\kyObjectBase -->
<g id="edge29" class="edge"><title>\\kyNewsSubscriber&#45;&gt;\\kyObjectBase</title>
<path fill="none" stroke="black" d="M226.31,-979.446C212.14,-975.45 197.81,-969.59 186,-961 128.512,-919.186 91.5054,-840.969 74.9873,-799.48"/>
<polygon fill="none" stroke="black" points="78.1942,-798.069 71.3193,-790.007 71.6665,-800.596 78.1942,-798.069"/>
</g>
<!-- \\kyObjectWithCustomFieldsBase -->
<g id="node19" class="node"><title>\\kyObjectWithCustomFieldsBase</title>
<a xlink:href="kyObjectWithCustomFieldsBase.html" xlink:title="kyObjectWithCustomFieldsBase" target="_parent">
<polygon fill="none" stroke="black" points="392,-844 186,-844 186,-808 392,-808 392,-844"/>
<text text-anchor="middle" x="289" y="-822.6" font-family="Courier,monospace" font-size="11.00">kyObjectWithCustomFieldsBase</text>
</a>
</g>
<!-- \\kyObjectWithCustomFieldsBase&#45;&gt;\\kyObjectBase -->
<g id="edge31" class="edge"><title>\\kyObjectWithCustomFieldsBase&#45;&gt;\\kyObjectBase</title>
<path fill="none" stroke="black" d="M214.1,-807.944C184.762,-800.871 151.595,-792.876 124.005,-786.224"/>
<polygon fill="none" stroke="black" points="124.651,-782.78 114.11,-783.839 123.011,-789.585 124.651,-782.78"/>
</g>
<!-- \\kyRESTClient -->
<g id="node20" class="node"><title>\\kyRESTClient</title>
<a xlink:href="kyRESTClient.html" xlink:title="kyRESTClient" target="_parent">
<polygon fill="none" stroke="black" points="858,-1006 760,-1006 760,-970 858,-970 858,-1006"/>
<text text-anchor="middle" x="809" y="-984.6" font-family="Courier,monospace" font-size="11.00">kyRESTClient</text>
</a>
</g>
<!-- \\kyRESTClientInterface -->
<g id="node21" class="node"><title>\\kyRESTClientInterface</title>
<a xlink:href="kyRESTClientInterface.html" xlink:title="kyRESTClientInterface" target="_parent">
<polygon fill="none" stroke="black" points="633,-1006 475,-1006 475,-970 633,-970 633,-1006"/>
<text text-anchor="middle" x="554" y="-984.6" font-family="Courier,monospace" font-size="11.00">kyRESTClientInterface</text>
</a>
</g>
<!-- \\kyRESTClient&#45;&gt;\\kyRESTClientInterface -->
<g id="edge61" class="edge"><title>\\kyRESTClient&#45;&gt;\\kyRESTClientInterface</title>
<path fill="none" stroke="black" stroke-dasharray="1,5" d="M759.833,-988C726.886,-988 682.543,-988 643.453,-988"/>
<polygon fill="none" stroke="black" points="643.112,-984.5 633.111,-988 643.111,-991.5 643.112,-984.5"/>
</g>
<!-- \\kyResultSet -->
<g id="node22" class="node"><title>\\kyResultSet</title>
<a xlink:href="kyResultSet.html" xlink:title="kyResultSet" target="_parent">
<polygon fill="none" stroke="black" points="854,-250 764,-250 764,-214 854,-214 854,-250"/>
<text text-anchor="middle" x="809" y="-228.6" font-family="Courier,monospace" font-size="11.00">kyResultSet</text>
</a>
</g>
<!-- \\Iterator -->
<g id="node69" class="node"><title>\\Iterator</title>
<ellipse fill="none" stroke="black" cx="554" cy="-126" rx="54.8957" ry="18"/>
<text text-anchor="middle" x="554" y="-121.9" font-family="Times Roman,serif" font-size="14.00" fill="gray">\\Iterator</text>
</g>
<!-- \\kyResultSet&#45;&gt;\\Iterator -->
<g id="edge63" class="edge"><title>\\kyResultSet&#45;&gt;\\Iterator</title>
<path fill="none" stroke="black" stroke-dasharray="1,5" d="M775.237,-213.926C742.357,-196.786 690.655,-171.042 644,-153 632.115,-148.404 619.102,-144.099 606.758,-140.335"/>
<polygon fill="none" stroke="black" points="607.618,-136.939 597.035,-137.437 605.619,-143.647 607.618,-136.939"/>
</g>
<!-- \\Countable -->
<g id="node71" class="node"><title>\\Countable</title>
<ellipse fill="none" stroke="black" cx="554" cy="-72" rx="66.2071" ry="18"/>
<text text-anchor="middle" x="554" y="-67.9" font-family="Times Roman,serif" font-size="14.00" fill="gray">\\Countable</text>
</g>
<!-- \\kyResultSet&#45;&gt;\\Countable -->
<g id="edge65" class="edge"><title>\\kyResultSet&#45;&gt;\\Countable</title>
<path fill="none" stroke="black" stroke-dasharray="1,5" d="M791.399,-213.845C762.93,-185.46 703.894,-130.559 644,-99 634.922,-94.217 624.872,-90.1544 614.876,-86.7469"/>
<polygon fill="none" stroke="black" points="615.933,-83.4104 605.342,-83.6786 613.789,-90.0738 615.933,-83.4104"/>
</g>
<!-- \\ArrayAccess -->
<g id="node73" class="node"><title>\\ArrayAccess</title>
<ellipse fill="none" stroke="black" cx="554" cy="-18" rx="75.2406" ry="18"/>
<text text-anchor="middle" x="554" y="-13.9" font-family="Times Roman,serif" font-size="14.00" fill="gray">\\ArrayAccess</text>
</g>
<!-- \\kyResultSet&#45;&gt;\\ArrayAccess -->
<g id="edge67" class="edge"><title>\\kyResultSet&#45;&gt;\\ArrayAccess</title>
<path fill="none" stroke="black" stroke-dasharray="1,5" d="M798.014,-213.827C774.517,-176.505 715.643,-90.8845 644,-45 636.891,-40.447 628.978,-36.6315 620.878,-33.4413"/>
<polygon fill="none" stroke="black" points="621.913,-30.0936 611.318,-29.9768 619.527,-36.6748 621.913,-30.0936"/>
</g>
<!-- \\kyStaff -->
<g id="node23" class="node"><title>\\kyStaff</title>
<a xlink:href="kyStaff.html" xlink:title="kyStaff" target="_parent">
<polygon fill="none" stroke="black" points="321,-952 257,-952 257,-916 321,-916 321,-952"/>
<text text-anchor="middle" x="289" y="-930.6" font-family="Courier,monospace" font-size="11.00">kyStaff</text>
</a>
</g>
<!-- \\kyStaff&#45;&gt;\\kyObjectBase -->
<g id="edge33" class="edge"><title>\\kyStaff&#45;&gt;\\kyObjectBase</title>
<path fill="none" stroke="black" d="M256.934,-930.477C235.593,-927.003 207.615,-920.199 186,-907 140.77,-879.381 102.693,-829.692 81.9258,-798.913"/>
<polygon fill="none" stroke="black" points="84.7261,-796.802 76.2917,-790.39 78.8868,-800.662 84.7261,-796.802"/>
</g>
<!-- \\kyStaffGroup -->
<g id="node24" class="node"><title>\\kyStaffGroup</title>
<a xlink:href="kyStaffGroup.html" xlink:title="kyStaffGroup" target="_parent">
<polygon fill="none" stroke="black" points="338,-898 240,-898 240,-862 338,-862 338,-898"/>
<text text-anchor="middle" x="289" y="-876.6" font-family="Courier,monospace" font-size="11.00">kyStaffGroup</text>
</a>
</g>
<!-- \\kyStaffGroup&#45;&gt;\\kyObjectBase -->
<g id="edge35" class="edge"><title>\\kyStaffGroup&#45;&gt;\\kyObjectBase</title>
<path fill="none" stroke="black" d="M239.909,-870.661C222.454,-866.429 202.94,-860.629 186,-853 152.949,-838.116 118.961,-814.493 95.4551,-796.591"/>
<polygon fill="none" stroke="black" points="97.3432,-793.626 87.2905,-790.281 93.0626,-799.165 97.3432,-793.626"/>
</g>
<!-- \\kyTicket -->
<g id="node25" class="node"><title>\\kyTicket</title>
<a xlink:href="kyTicket.html" xlink:title="kyTicket" target="_parent">
<polygon fill="none" stroke="black" points="589,-844 519,-844 519,-808 589,-808 589,-844"/>
<text text-anchor="middle" x="554" y="-822.6" font-family="Courier,monospace" font-size="11.00">kyTicket</text>
</a>
</g>
<!-- \\kyTicket&#45;&gt;\\kyObjectWithCustomFieldsBase -->
<g id="edge37" class="edge"><title>\\kyTicket&#45;&gt;\\kyObjectWithCustomFieldsBase</title>
<path fill="none" stroke="black" d="M518.261,-826C488.373,-826 444.042,-826 402.307,-826"/>
<polygon fill="none" stroke="black" points="402.046,-822.5 392.046,-826 402.046,-829.5 402.046,-822.5"/>
</g>
<!-- \\kyTicketAttachment -->
<g id="node26" class="node"><title>\\kyTicketAttachment</title>
<a xlink:href="kyTicketAttachment.html" xlink:title="kyTicketAttachment" target="_parent">
<polygon fill="none" stroke="black" points="358,-790 220,-790 220,-754 358,-754 358,-790"/>
<text text-anchor="middle" x="289" y="-768.6" font-family="Courier,monospace" font-size="11.00">kyTicketAttachment</text>
</a>
</g>
<!-- \\kyTicketAttachment&#45;&gt;\\kyObjectBase -->
<g id="edge39" class="edge"><title>\\kyTicketAttachment&#45;&gt;\\kyObjectBase</title>
<path fill="none" stroke="black" d="M219.965,-772C189.377,-772 153.751,-772 124.375,-772"/>
<polygon fill="none" stroke="black" points="124.264,-768.5 114.264,-772 124.264,-775.5 124.264,-768.5"/>
</g>
<!-- \\kyTicketCustomFieldGroup -->
<g id="node27" class="node"><title>\\kyTicketCustomFieldGroup</title>
<a xlink:href="kyTicketCustomFieldGroup.html" xlink:title="kyTicketCustomFieldGroup" target="_parent">
<polygon fill="none" stroke="black" points="643,-736 465,-736 465,-700 643,-700 643,-736"/>
<text text-anchor="middle" x="554" y="-714.6" font-family="Courier,monospace" font-size="11.00">kyTicketCustomFieldGroup</text>
</a>
</g>
<!-- \\kyTicketCustomFieldGroup&#45;&gt;\\kyCustomFieldGroupBase -->
<g id="edge41" class="edge"><title>\\kyTicketCustomFieldGroup&#45;&gt;\\kyCustomFieldGroupBase</title>
<path fill="none" stroke="black" d="M464.283,-718C437.787,-718 408.735,-718 382.035,-718"/>
<polygon fill="none" stroke="black" points="381.928,-714.5 371.928,-718 381.928,-721.5 381.928,-714.5"/>
</g>
<!-- \\kyTicketNote -->
<g id="node28" class="node"><title>\\kyTicketNote</title>
<a xlink:href="kyTicketNote.html" xlink:title="kyTicketNote" target="_parent">
<polygon fill="none" stroke="black" points="338,-682 240,-682 240,-646 338,-646 338,-682"/>
<text text-anchor="middle" x="289" y="-660.6" font-family="Courier,monospace" font-size="11.00">kyTicketNote</text>
</a>
</g>
<!-- \\kyTicketNote&#45;&gt;\\kyObjectBase -->
<g id="edge43" class="edge"><title>\\kyTicketNote&#45;&gt;\\kyObjectBase</title>
<path fill="none" stroke="black" d="M239.909,-673.339C222.454,-677.571 202.94,-683.371 186,-691 152.949,-705.884 118.961,-729.507 95.4551,-747.409"/>
<polygon fill="none" stroke="black" points="93.0626,-744.835 87.2905,-753.719 97.3432,-750.374 93.0626,-744.835"/>
</g>
<!-- \\kyTicketPost -->
<g id="node29" class="node"><title>\\kyTicketPost</title>
<a xlink:href="kyTicketPost.html" xlink:title="kyTicketPost" target="_parent">
<polygon fill="none" stroke="black" points="338,-628 240,-628 240,-592 338,-592 338,-628"/>
<text text-anchor="middle" x="289" y="-606.6" font-family="Courier,monospace" font-size="11.00">kyTicketPost</text>
</a>
</g>
<!-- \\kyTicketPost&#45;&gt;\\kyObjectBase -->
<g id="edge45" class="edge"><title>\\kyTicketPost&#45;&gt;\\kyObjectBase</title>
<path fill="none" stroke="black" d="M239.757,-616.83C221.906,-620.829 202.172,-627.125 186,-637 140.77,-664.619 102.693,-714.308 81.9258,-745.087"/>
<polygon fill="none" stroke="black" points="78.8868,-743.338 76.2917,-753.61 84.7261,-747.198 78.8868,-743.338"/>
</g>
<!-- \\kyTicketPriority -->
<g id="node30" class="node"><title>\\kyTicketPriority</title>
<a xlink:href="kyTicketPriority.html" xlink:title="kyTicketPriority" target="_parent">
<polygon fill="none" stroke="black" points="351,-574 227,-574 227,-538 351,-538 351,-574"/>
<text text-anchor="middle" x="289" y="-552.6" font-family="Courier,monospace" font-size="11.00">kyTicketPriority</text>
</a>
</g>
<!-- \\kyTicketPriority&#45;&gt;\\kyObjectBase -->
<g id="edge47" class="edge"><title>\\kyTicketPriority&#45;&gt;\\kyObjectBase</title>
<path fill="none" stroke="black" d="M226.31,-564.554C212.14,-568.55 197.81,-574.41 186,-583 128.512,-624.814 91.5054,-703.031 74.9873,-744.52"/>
<polygon fill="none" stroke="black" points="71.6665,-743.404 71.3193,-753.993 78.1942,-745.931 71.6665,-743.404"/>
</g>
<!-- \\kyTicketStatus -->
<g id="node31" class="node"><title>\\kyTicketStatus</title>
<a xlink:href="kyTicketStatus.html" xlink:title="kyTicketStatus" target="_parent">
<polygon fill="none" stroke="black" points="344,-520 234,-520 234,-484 344,-484 344,-520"/>
<text text-anchor="middle" x="289" y="-498.6" font-family="Courier,monospace" font-size="11.00">kyTicketStatus</text>
</a>
</g>
<!-- \\kyTicketStatus&#45;&gt;\\kyObjectBase -->
<g id="edge49" class="edge"><title>\\kyTicketStatus&#45;&gt;\\kyObjectBase</title>
<path fill="none" stroke="black" d="M233.395,-507.646C216.767,-511.557 199.412,-518.097 186,-529 116.182,-585.758 83.2032,-693.012 70.9474,-743.876"/>
<polygon fill="none" stroke="black" points="67.4874,-743.303 68.6409,-753.835 74.3069,-744.883 67.4874,-743.303"/>
</g>
<!-- \\kyTicketTimeTrack -->
<g id="node32" class="node"><title>\\kyTicketTimeTrack</title>
<a xlink:href="kyTicketTimeTrack.html" xlink:title="kyTicketTimeTrack" target="_parent">
<polygon fill="none" stroke="black" points="354,-466 224,-466 224,-430 354,-430 354,-466"/>
<text text-anchor="middle" x="289" y="-444.6" font-family="Courier,monospace" font-size="11.00">kyTicketTimeTrack</text>
</a>
</g>
<!-- \\kyTicketTimeTrack&#45;&gt;\\kyObjectBase -->
<g id="edge51" class="edge"><title>\\kyTicketTimeTrack&#45;&gt;\\kyObjectBase</title>
<path fill="none" stroke="black" d="M223.239,-455.612C209.754,-459.672 196.492,-465.795 186,-475 103.455,-547.419 76.2796,-684.532 68.1524,-743.674"/>
<polygon fill="none" stroke="black" points="64.6574,-743.411 66.8474,-753.777 71.5997,-744.308 64.6574,-743.411"/>
</g>
<!-- \\kyTicketType -->
<g id="node33" class="node"><title>\\kyTicketType</title>
<a xlink:href="kyTicketType.html" xlink:title="kyTicketType" target="_parent">
<polygon fill="none" stroke="black" points="338,-412 240,-412 240,-376 338,-376 338,-412"/>
<text text-anchor="middle" x="289" y="-390.6" font-family="Courier,monospace" font-size="11.00">kyTicketType</text>
</a>
</g>
<!-- \\kyTicketType&#45;&gt;\\kyObjectBase -->
<g id="edge53" class="edge"><title>\\kyTicketType&#45;&gt;\\kyObjectBase</title>
<path fill="none" stroke="black" d="M239.945,-397.077C221.069,-400.564 200.573,-407.489 186,-421 137.006,-466.423 88.0153,-668.449 71.1504,-743.662"/>
<polygon fill="none" stroke="black" points="67.6491,-743.285 68.8991,-753.805 74.4828,-744.801 67.6491,-743.285"/>
</g>
<!-- \\kyUser -->
<g id="node34" class="node"><title>\\kyUser</title>
<a xlink:href="kyUser.html" xlink:title="kyUser" target="_parent">
<polygon fill="none" stroke="black" points="317,-358 261,-358 261,-322 317,-322 317,-358"/>
<text text-anchor="middle" x="289" y="-336.6" font-family="Courier,monospace" font-size="11.00">kyUser</text>
</a>
</g>
<!-- \\kyUser&#45;&gt;\\kyObjectBase -->
<g id="edge55" class="edge"><title>\\kyUser&#45;&gt;\\kyObjectBase</title>
<path fill="none" stroke="black" d="M260.44,-340.175C237.448,-341.851 205.805,-347.857 186,-367 130.397,-420.746 84.3345,-660.505 69.7911,-743.564"/>
<polygon fill="none" stroke="black" points="66.3188,-743.103 68.0622,-753.554 73.2163,-744.297 66.3188,-743.103"/>
</g>
<!-- \\kyUserGroup -->
<g id="node35" class="node"><title>\\kyUserGroup</title>
<a xlink:href="kyUserGroup.html" xlink:title="kyUserGroup" target="_parent">
<polygon fill="none" stroke="black" points="334,-304 244,-304 244,-268 334,-268 334,-304"/>
<text text-anchor="middle" x="289" y="-282.6" font-family="Courier,monospace" font-size="11.00">kyUserGroup</text>
</a>
</g>
<!-- \\kyUserGroup&#45;&gt;\\kyObjectBase -->
<g id="edge57" class="edge"><title>\\kyUserGroup&#45;&gt;\\kyObjectBase</title>
<path fill="none" stroke="black" d="M243.371,-287.878C223.356,-291.004 201.043,-297.978 186,-313 123.661,-375.253 81.0492,-653.692 68.6968,-743.78"/>
<polygon fill="none" stroke="black" points="65.2128,-743.426 67.3411,-753.805 72.1497,-744.364 65.2128,-743.426"/>
</g>
<!-- \\kyUserOrganization -->
<g id="node36" class="node"><title>\\kyUserOrganization</title>
<a xlink:href="kyUserOrganization.html" xlink:title="kyUserOrganization" target="_parent">
<polygon fill="none" stroke="black" points="358,-250 220,-250 220,-214 358,-214 358,-250"/>
<text text-anchor="middle" x="289" y="-228.6" font-family="Courier,monospace" font-size="11.00">kyUserOrganization</text>
</a>
</g>
<!-- \\kyUserOrganization&#45;&gt;\\kyObjectBase -->
<g id="edge59" class="edge"><title>\\kyUserOrganization&#45;&gt;\\kyObjectBase</title>
<path fill="none" stroke="black" d="M219.998,-239.115C207.339,-243.257 195.23,-249.539 186,-259 116.934,-329.795 78.2317,-646.814 67.8602,-743.749"/>
<polygon fill="none" stroke="black" points="64.3527,-743.638 66.7872,-753.95 71.3143,-744.371 64.3527,-743.638"/>
</g>
</g>
</svg>
