<?xml version="1.0" encoding="UTF-8" standalone="no"?>
<!DOCTYPE svg PUBLIC "-//W3C//DTD SVG 1.1//EN"
 "http://www.w3.org/Graphics/SVG/1.1/DTD/svg11.dtd">
<!-- Generated by graphviz version 2.26.3 (20100126.1600)
 -->
<!-- Title: G Pages: 1 -->
<svg width="926pt" height="1214pt"
 viewBox="0.00 0.00 926.00 1214.00" xmlns="http://www.w3.org/2000/svg" xmlns:xlink="http://www.w3.org/1999/xlink">
<g id="graph1" class="graph" transform="scale(1 1) rotate(0) translate(4 1210)">
<title>G</title>
<polygon fill="white" stroke="white" points="-4,5 -4,-1210 923,-1210 923,5 -4,5"/>
<g id="graph2" class="cluster"><title>cluster_global</title>
<polyline fill="none" stroke="gray" points="20,-206 898,-206 "/>
<path fill="none" stroke="gray" d="M898,-206C904,-206 910,-212 910,-218"/>
<polyline fill="none" stroke="gray" points="910,-218 910,-1186 "/>
<path fill="none" stroke="gray" d="M910,-1186C910,-1192 904,-1198 898,-1198"/>
<polyline fill="none" stroke="gray" points="898,-1198 20,-1198 "/>
<path fill="none" stroke="gray" d="M20,-1198C14,-1198 8,-1192 8,-1186"/>
<polyline fill="none" stroke="gray" points="8,-1186 8,-218 "/>
<path fill="none" stroke="gray" d="M8,-218C8,-212 14,-206 20,-206"/>
<text text-anchor="middle" x="459" y="-1184.1" font-family="Times Roman,serif" font-size="11.00" fill="gray">global</text>
</g>
<!-- \\kyConfig -->
<g id="node2" class="node"><title>\\kyConfig</title>
<a xlink:href="kyConfig.html" xlink:title="kyConfig" target="_parent">
<polygon fill="none" stroke="black" points="844,-1168 774,-1168 774,-1132 844,-1132 844,-1168"/>
<text text-anchor="middle" x="809" y="-1146.6" font-family="Courier,monospace" font-size="11.00">kyConfig</text>
</a>
</g>
<!-- \\kyCustomField -->
<g id="node3" class="node"><title>\\kyCustomField</title>
<a xlink:href="kyCustomField.html" xlink:title="kyCustomField" target="_parent">
<polygon fill="none" stroke="black" points="341,-1114 237,-1114 237,-1078 341,-1078 341,-1114"/>
<text text-anchor="middle" x="289" y="-1092.6" font-family="Courier,monospace" font-size="11.00">kyCustomField</text>
</a>
</g>
<!-- \\kyObjectBase -->
<g id="node15" class="node"><title>\\kyObjectBase</title>
<a xlink:href="kyObjectBase.html" xlink:title="kyObjectBase" target="_parent">
<polygon fill="none" stroke="black" points="114,-709 16,-709 16,-673 114,-673 114,-709"/>
<text text-anchor="middle" x="65" y="-687.6" font-family="Courier,monospace" font-size="11.00">kyObjectBase</text>
</a>
</g>
<!-- \\kyCustomField&#45;&gt;\\kyObjectBase -->
<g id="edge3" class="edge"><title>\\kyCustomField&#45;&gt;\\kyObjectBase</title>
<path fill="none" stroke="black" d="M236.881,-1092.53C218.816,-1088.89 199.684,-1081.97 186,-1069 133.702,-1019.42 86.089,-798.524 70.4171,-719.351"/>
<polygon fill="none" stroke="black" points="73.7767,-718.294 68.4206,-709.153 66.9071,-719.639 73.7767,-718.294"/>
</g>
<!-- \\kyCustomFieldDate -->
<g id="node4" class="node"><title>\\kyCustomFieldDate</title>
<a xlink:href="kyCustomFieldDate.html" xlink:title="kyCustomFieldDate" target="_parent">
<polygon fill="none" stroke="black" points="619,-1006 489,-1006 489,-970 619,-970 619,-1006"/>
<text text-anchor="middle" x="554" y="-984.6" font-family="Courier,monospace" font-size="11.00">kyCustomFieldDate</text>
</a>
</g>
<!-- \\kyCustomFieldDate&#45;&gt;\\kyCustomField -->
<g id="edge5" class="edge"><title>\\kyCustomFieldDate&#45;&gt;\\kyCustomField</title>
<path fill="none" stroke="black" d="M488.058,-1004.83C479.782,-1007.79 471.573,-1011.18 464,-1015 428.292,-1033.03 428.019,-1051.6 392,-1069 379.275,-1075.15 364.965,-1080.03 351.151,-1083.86"/>
<polygon fill="none" stroke="black" points="349.998,-1080.54 341.21,-1086.46 351.771,-1087.31 349.998,-1080.54"/>
</g>
<!-- \\kyCustomFieldDefinition -->
<g id="node5" class="node"><title>\\kyCustomFieldDefinition</title>
<a xlink:href="kyCustomFieldDefinition.html" xlink:title="kyCustomFieldDefinition" target="_parent">
<polygon fill="none" stroke="black" points="375,-1168 203,-1168 203,-1132 375,-1132 375,-1168"/>
<text text-anchor="middle" x="289" y="-1146.6" font-family="Courier,monospace" font-size="11.00">kyCustomFieldDefinition</text>
</a>
</g>
<!-- \\kyCustomFieldDefinition&#45;&gt;\\kyObjectBase -->
<g id="edge7" class="edge"><title>\\kyCustomFieldDefinition&#45;&gt;\\kyObjectBase</title>
<path fill="none" stroke="black" d="M202.54,-1135.06C196.495,-1131.77 190.877,-1127.8 186,-1123 127.02,-1065 82.611,-805.827 69.1989,-719.259"/>
<polygon fill="none" stroke="black" points="72.6211,-718.483 67.6494,-709.128 65.7016,-719.542 72.6211,-718.483"/>
</g>
<!-- \\kyCustomFieldFile -->
<g id="node6" class="node"><title>\\kyCustomFieldFile</title>
<a xlink:href="kyCustomFieldFile.html" xlink:title="kyCustomFieldFile" target="_parent">
<polygon fill="none" stroke="black" points="619,-1168 489,-1168 489,-1132 619,-1132 619,-1168"/>
<text text-anchor="middle" x="554" y="-1146.6" font-family="Courier,monospace" font-size="11.00">kyCustomFieldFile</text>
</a>
</g>
<!-- \\kyCustomFieldFile&#45;&gt;\\kyCustomField -->
<g id="edge9" class="edge"><title>\\kyCustomFieldFile&#45;&gt;\\kyCustomField</title>
<path fill="none" stroke="black" d="M488.494,-1136.65C446.582,-1128.11 392.534,-1117.1 351.268,-1108.69"/>
<polygon fill="none" stroke="black" points="351.833,-1105.23 341.336,-1106.66 350.435,-1112.09 351.833,-1105.23"/>
</g>
<!-- \\kyCustomFieldGroupBase -->
<g id="node7" class="node"><title>\\kyCustomFieldGroupBase</title>
<a xlink:href="kyCustomFieldGroupBase.html" xlink:title="kyCustomFieldGroupBase" target="_parent">
<polygon fill="none" stroke="black" points="371,-736 207,-736 207,-700 371,-700 371,-736"/>
<text text-anchor="middle" x="289" y="-714.6" font-family="Courier,monospace" font-size="11.00">kyCustomFieldGroupBase</text>
</a>
</g>
<!-- \\kyCustomFieldGroupBase&#45;&gt;\\kyObjectBase -->
<g id="edge11" class="edge"><title>\\kyCustomFieldGroupBase&#45;&gt;\\kyObjectBase</title>
<path fill="none" stroke="black" d="M206.227,-708.023C179.062,-704.749 149.431,-701.177 124.357,-698.155"/>
<polygon fill="none" stroke="black" points="124.617,-694.661 114.27,-696.939 123.78,-701.61 124.617,-694.661"/>
</g>
<!-- \\kyCustomFieldLinkedSelect -->
<g id="node8" class="node"><title>\\kyCustomFieldLinkedSelect</title>
<a xlink:href="kyCustomFieldLinkedSelect.html" xlink:title="kyCustomFieldLinkedSelect" target="_parent">
<polygon fill="none" stroke="black" points="901,-1114 717,-1114 717,-1078 901,-1078 901,-1114"/>
<text text-anchor="middle" x="809" y="-1092.6" font-family="Courier,monospace" font-size="11.00">kyCustomFieldLinkedSelect</text>
</a>
</g>
<!-- \\kyCustomFieldSelect -->
<g id="node11" class="node"><title>\\kyCustomFieldSelect</title>
<a xlink:href="kyCustomFieldSelect.html" xlink:title="kyCustomFieldSelect" target="_parent">
<polygon fill="none" stroke="black" points="626,-1114 482,-1114 482,-1078 626,-1078 626,-1114"/>
<text text-anchor="middle" x="554" y="-1092.6" font-family="Courier,monospace" font-size="11.00">kyCustomFieldSelect</text>
</a>
</g>
<!-- \\kyCustomFieldLinkedSelect&#45;&gt;\\kyCustomFieldSelect -->
<g id="edge13" class="edge"><title>\\kyCustomFieldLinkedSelect&#45;&gt;\\kyCustomFieldSelect</title>
<path fill="none" stroke="black" d="M716.218,-1096C690.31,-1096 662.331,-1096 637.025,-1096"/>
<polygon fill="none" stroke="black" points="636.73,-1092.5 626.73,-1096 636.73,-1099.5 636.73,-1092.5"/>
</g>
<!-- \\kyCustomFieldMultiSelect -->
<g id="node9" class="node"><title>\\kyCustomFieldMultiSelect</title>
<a xlink:href="kyCustomFieldMultiSelect.html" xlink:title="kyCustomFieldMultiSelect" target="_parent">
<polygon fill="none" stroke="black" points="643,-1060 465,-1060 465,-1024 643,-1024 643,-1060"/>
<text text-anchor="middle" x="554" y="-1038.6" font-family="Courier,monospace" font-size="11.00">kyCustomFieldMultiSelect</text>
</a>
</g>
<!-- \\kyCustomFieldMultiSelect&#45;&gt;\\kyCustomField -->
<g id="edge15" class="edge"><title>\\kyCustomFieldMultiSelect&#45;&gt;\\kyCustomField</title>
<path fill="none" stroke="black" d="M465.39,-1060.06C427.867,-1067.7 385.05,-1076.43 350.998,-1083.37"/>
<polygon fill="none" stroke="black" points="350.283,-1079.94 341.184,-1085.37 351.681,-1086.8 350.283,-1079.94"/>
</g>
<!-- \\kyCustomFieldOption -->
<g id="node10" class="node"><title>\\kyCustomFieldOption</title>
<a xlink:href="kyCustomFieldOption.html" xlink:title="kyCustomFieldOption" target="_parent">
<polygon fill="none" stroke="black" points="361,-1060 217,-1060 217,-1024 361,-1024 361,-1060"/>
<text text-anchor="middle" x="289" y="-1038.6" font-family="Courier,monospace" font-size="11.00">kyCustomFieldOption</text>
</a>
</g>
<!-- \\kyCustomFieldOption&#45;&gt;\\kyObjectBase -->
<g id="edge17" class="edge"><title>\\kyCustomFieldOption&#45;&gt;\\kyObjectBase</title>
<path fill="none" stroke="black" d="M216.377,-1032.42C205.266,-1028.41 194.641,-1022.81 186,-1015 96.9335,-934.508 73.1837,-782.12 67.0529,-719.233"/>
<polygon fill="none" stroke="black" points="70.5368,-718.895 66.1566,-709.248 63.5648,-719.521 70.5368,-718.895"/>
</g>
<!-- \\kyCustomFieldSelect&#45;&gt;\\kyCustomField -->
<g id="edge19" class="edge"><title>\\kyCustomFieldSelect&#45;&gt;\\kyCustomField</title>
<path fill="none" stroke="black" d="M481.237,-1096C440.447,-1096 390.105,-1096 351.17,-1096"/>
<polygon fill="none" stroke="black" points="351.021,-1092.5 341.021,-1096 351.021,-1099.5 351.021,-1092.5"/>
</g>
<!-- \\kyDepartment -->
<g id="node12" class="node"><title>\\kyDepartment</title>
<a xlink:href="kyDepartment.html" xlink:title="kyDepartment" target="_parent">
<polygon fill="none" stroke="black" points="338,-1006 240,-1006 240,-970 338,-970 338,-1006"/>
<text text-anchor="middle" x="289" y="-984.6" font-family="Courier,monospace" font-size="11.00">kyDepartment</text>
</a>
</g>
<!-- \\kyDepartment&#45;&gt;\\kyObjectBase -->
<g id="edge21" class="edge"><title>\\kyDepartment&#45;&gt;\\kyObjectBase</title>
<path fill="none" stroke="black" d="M239.752,-984.101C221.179,-980.474 200.95,-973.667 186,-961 109.946,-896.559 79.6657,-774.662 69.4656,-719.45"/>
<polygon fill="none" stroke="black" points="72.8656,-718.576 67.6857,-709.334 65.9715,-719.789 72.8656,-718.576"/>
</g>
<!-- \\kyException -->
<g id="node13" class="node"><title>\\kyException</title>
<a xlink:href="kyHelpers.html" xlink:title="kyException" target="_parent">
<polygon fill="none" stroke="black" points="854,-304 764,-304 764,-268 854,-268 854,-304"/>
<text text-anchor="middle" x="809" y="-282.6" font-family="Courier,monospace" font-size="11.00">kyException</text>
</a>
</g>
<!-- \\Exception -->
<g id="node45" class="node"><title>\\Exception</title>
<ellipse fill="none" stroke="black" cx="554" cy="-180" rx="61.8445" ry="18"/>
<text text-anchor="middle" x="554" y="-175.9" font-family="Times Roman,serif" font-size="14.00" fill="gray">\Exception</text>
</g>
<!-- \\kyException&#45;&gt;\\Exception -->
<g id="edge23" class="edge"><title>\\kyException&#45;&gt;\\Exception</title>
<path fill="none" stroke="black" d="M763.186,-276.47C747.705,-272.278 730.644,-266.551 716,-259 679.725,-240.294 680.667,-219.925 644,-202 635.722,-197.953 626.643,-194.616 617.535,-191.874"/>
<polygon fill="none" stroke="black" points="618.251,-188.44 607.678,-189.126 616.371,-195.183 618.251,-188.44"/>
</g>
<!-- \\kyUsort -->
<g id="node14" class="node"><title>\\kyUsort</title>
<a xlink:href="kyHelpers.html" xlink:title="kyUsort" target="_parent">
<polygon fill="none" stroke="black" points="841,-601 777,-601 777,-565 841,-565 841,-601"/>
<text text-anchor="middle" x="809" y="-579.6" font-family="Courier,monospace" font-size="11.00">kyUsort</text>
</a>
</g>
<!-- \\kyObjectWithCustomFieldsBase -->
<g id="node16" class="node"><title>\\kyObjectWithCustomFieldsBase</title>
<a xlink:href="kyObjectWithCustomFieldsBase.html" xlink:title="kyObjectWithCustomFieldsBase" target="_parent">
<polygon fill="none" stroke="black" points="392,-844 186,-844 186,-808 392,-808 392,-844"/>
<text text-anchor="middle" x="289" y="-822.6" font-family="Courier,monospace" font-size="11.00">kyObjectWithCustomFieldsBase</text>
</a>
</g>
<!-- \\kyObjectWithCustomFieldsBase&#45;&gt;\\kyObjectBase -->
<g id="edge25" class="edge"><title>\\kyObjectWithCustomFieldsBase&#45;&gt;\\kyObjectBase</title>
<path fill="none" stroke="black" d="M205.868,-807.936C198.986,-805.329 192.271,-802.365 186,-799 146.597,-777.855 109.516,-741.381 87.0396,-716.735"/>
<polygon fill="none" stroke="black" points="89.5516,-714.294 80.2709,-709.184 84.3389,-718.966 89.5516,-714.294"/>
</g>
<!-- \\kyRESTClient -->
<g id="node17" class="node"><title>\\kyRESTClient</title>
<a xlink:href="kyRESTClient.html" xlink:title="kyRESTClient" target="_parent">
<polygon fill="none" stroke="black" points="858,-925 760,-925 760,-889 858,-889 858,-925"/>
<text text-anchor="middle" x="809" y="-903.6" font-family="Courier,monospace" font-size="11.00">kyRESTClient</text>
</a>
</g>
<!-- \\kyRESTClientInterface -->
<g id="node18" class="node"><title>\\kyRESTClientInterface</title>
<a xlink:href="kyRESTClientInterface.html" xlink:title="kyRESTClientInterface" target="_parent">
<polygon fill="none" stroke="black" points="633,-925 475,-925 475,-889 633,-889 633,-925"/>
<text text-anchor="middle" x="554" y="-903.6" font-family="Courier,monospace" font-size="11.00">kyRESTClientInterface</text>
</a>
</g>
<!-- \\kyRESTClient&#45;&gt;\\kyRESTClientInterface -->
<g id="edge55" class="edge"><title>\\kyRESTClient&#45;&gt;\\kyRESTClientInterface</title>
<path fill="none" stroke="black" stroke-dasharray="1,5" d="M759.833,-907C726.886,-907 682.543,-907 643.453,-907"/>
<polygon fill="none" stroke="black" points="643.112,-903.5 633.111,-907 643.111,-910.5 643.112,-903.5"/>
</g>
<!-- \\kyResultSet -->
<g id="node19" class="node"><title>\\kyResultSet</title>
<a xlink:href="kyResultSet.html" xlink:title="kyResultSet" target="_parent">
<polygon fill="none" stroke="black" points="854,-250 764,-250 764,-214 854,-214 854,-250"/>
<text text-anchor="middle" x="809" y="-228.6" font-family="Courier,monospace" font-size="11.00">kyResultSet</text>
</a>
</g>
<!-- \\Iterator -->
<g id="node63" class="node"><title>\\Iterator</title>
<ellipse fill="none" stroke="black" cx="554" cy="-126" rx="54.8957" ry="18"/>
<text text-anchor="middle" x="554" y="-121.9" font-family="Times Roman,serif" font-size="14.00" fill="gray">\\Iterator</text>
</g>
<!-- \\kyResultSet&#45;&gt;\\Iterator -->
<g id="edge57" class="edge"><title>\\kyResultSet&#45;&gt;\\Iterator</title>
<path fill="none" stroke="black" stroke-dasharray="1,5" d="M775.237,-213.926C742.357,-196.786 690.655,-171.042 644,-153 632.115,-148.404 619.102,-144.099 606.758,-140.335"/>
<polygon fill="none" stroke="black" points="607.618,-136.939 597.035,-137.437 605.619,-143.647 607.618,-136.939"/>
</g>
<!-- \\Countable -->
<g id="node65" class="node"><title>\\Countable</title>
<ellipse fill="none" stroke="black" cx="554" cy="-72" rx="66.2071" ry="18"/>
<text text-anchor="middle" x="554" y="-67.9" font-family="Times Roman,serif" font-size="14.00" fill="gray">\\Countable</text>
</g>
<!-- \\kyResultSet&#45;&gt;\\Countable -->
<g id="edge59" class="edge"><title>\\kyResultSet&#45;&gt;\\Countable</title>
<path fill="none" stroke="black" stroke-dasharray="1,5" d="M791.399,-213.845C762.93,-185.46 703.894,-130.559 644,-99 634.922,-94.217 624.872,-90.1544 614.876,-86.7469"/>
<polygon fill="none" stroke="black" points="615.933,-83.4104 605.342,-83.6786 613.789,-90.0738 615.933,-83.4104"/>
</g>
<!-- \\ArrayAccess -->
<g id="node67" class="node"><title>\\ArrayAccess</title>
<ellipse fill="none" stroke="black" cx="554" cy="-18" rx="75.2406" ry="18"/>
<text text-anchor="middle" x="554" y="-13.9" font-family="Times Roman,serif" font-size="14.00" fill="gray">\\ArrayAccess</text>
</g>
<!-- \\kyResultSet&#45;&gt;\\ArrayAccess -->
<g id="edge61" class="edge"><title>\\kyResultSet&#45;&gt;\\ArrayAccess</title>
<path fill="none" stroke="black" stroke-dasharray="1,5" d="M798.014,-213.827C774.517,-176.505 715.643,-90.8845 644,-45 636.891,-40.447 628.978,-36.6315 620.878,-33.4413"/>
<polygon fill="none" stroke="black" points="621.913,-30.0936 611.318,-29.9768 619.527,-36.6748 621.913,-30.0936"/>
</g>
<!-- \\kyStaff -->
<g id="node20" class="node"><title>\\kyStaff</title>
<a xlink:href="kyStaff.html" xlink:title="kyStaff" target="_parent">
<polygon fill="none" stroke="black" points="321,-952 257,-952 257,-916 321,-916 321,-952"/>
<text text-anchor="middle" x="289" y="-930.6" font-family="Courier,monospace" font-size="11.00">kyStaff</text>
</a>
</g>
<!-- \\kyStaff&#45;&gt;\\kyObjectBase -->
<g id="edge27" class="edge"><title>\\kyStaff&#45;&gt;\\kyObjectBase</title>
<path fill="none" stroke="black" d="M256.86,-932.086C234.946,-929.328 206.327,-922.719 186,-907 122.462,-857.864 87.2109,-765.371 72.8056,-718.999"/>
<polygon fill="none" stroke="black" points="76.1229,-717.876 69.8916,-709.308 69.4194,-719.892 76.1229,-717.876"/>
</g>
<!-- \\kyStaffGroup -->
<g id="node21" class="node"><title>\\kyStaffGroup</title>
<a xlink:href="kyStaffGroup.html" xlink:title="kyStaffGroup" target="_parent">
<polygon fill="none" stroke="black" points="338,-898 240,-898 240,-862 338,-862 338,-898"/>
<text text-anchor="middle" x="289" y="-876.6" font-family="Courier,monospace" font-size="11.00">kyStaffGroup</text>
</a>
</g>
<!-- \\kyStaffGroup&#45;&gt;\\kyObjectBase -->
<g id="edge29" class="edge"><title>\\kyStaffGroup&#45;&gt;\\kyObjectBase</title>
<path fill="none" stroke="black" d="M239.788,-874.052C221.742,-870.149 201.868,-863.69 186,-853 134.686,-818.432 96.675,-754.675 77.9722,-718.305"/>
<polygon fill="none" stroke="black" points="81.041,-716.617 73.4251,-709.252 74.7856,-719.759 81.041,-716.617"/>
</g>
<!-- \\kyTicket -->
<g id="node22" class="node"><title>\\kyTicket</title>
<a xlink:href="kyTicket.html" xlink:title="kyTicket" target="_parent">
<polygon fill="none" stroke="black" points="589,-844 519,-844 519,-808 589,-808 589,-844"/>
<text text-anchor="middle" x="554" y="-822.6" font-family="Courier,monospace" font-size="11.00">kyTicket</text>
</a>
</g>
<!-- \\kyTicket&#45;&gt;\\kyObjectWithCustomFieldsBase -->
<g id="edge31" class="edge"><title>\\kyTicket&#45;&gt;\\kyObjectWithCustomFieldsBase</title>
<path fill="none" stroke="black" d="M518.261,-826C488.373,-826 444.042,-826 402.307,-826"/>
<polygon fill="none" stroke="black" points="402.046,-822.5 392.046,-826 402.046,-829.5 402.046,-822.5"/>
</g>
<!-- \\kyTicketAttachment -->
<g id="node23" class="node"><title>\\kyTicketAttachment</title>
<a xlink:href="kyTicketAttachment.html" xlink:title="kyTicketAttachment" target="_parent">
<polygon fill="none" stroke="black" points="358,-790 220,-790 220,-754 358,-754 358,-790"/>
<text text-anchor="middle" x="289" y="-768.6" font-family="Courier,monospace" font-size="11.00">kyTicketAttachment</text>
</a>
</g>
<!-- \\kyTicketAttachment&#45;&gt;\\kyObjectBase -->
<g id="edge33" class="edge"><title>\\kyTicketAttachment&#45;&gt;\\kyObjectBase</title>
<path fill="none" stroke="black" d="M219.826,-755.533C208.429,-752.345 196.813,-748.801 186,-745 160.46,-736.021 132.83,-723.885 110.429,-713.393"/>
<polygon fill="none" stroke="black" points="111.707,-710.125 101.171,-709.011 108.712,-716.452 111.707,-710.125"/>
</g>
<!-- \\kyTicketCustomFieldGroup -->
<g id="node24" class="node"><title>\\kyTicketCustomFieldGroup</title>
<a xlink:href="kyTicketCustomFieldGroup.html" xlink:title="kyTicketCustomFieldGroup" target="_parent">
<polygon fill="none" stroke="black" points="643,-736 465,-736 465,-700 643,-700 643,-736"/>
<text text-anchor="middle" x="554" y="-714.6" font-family="Courier,monospace" font-size="11.00">kyTicketCustomFieldGroup</text>
</a>
</g>
<!-- \\kyTicketCustomFieldGroup&#45;&gt;\\kyCustomFieldGroupBase -->
<g id="edge35" class="edge"><title>\\kyTicketCustomFieldGroup&#45;&gt;\\kyCustomFieldGroupBase</title>
<path fill="none" stroke="black" d="M464.283,-718C437.787,-718 408.735,-718 382.035,-718"/>
<polygon fill="none" stroke="black" points="381.928,-714.5 371.928,-718 381.928,-721.5 381.928,-714.5"/>
</g>
<!-- \\kyTicketNote -->
<g id="node25" class="node"><title>\\kyTicketNote</title>
<a xlink:href="kyTicketNote.html" xlink:title="kyTicketNote" target="_parent">
<polygon fill="none" stroke="black" points="338,-682 240,-682 240,-646 338,-646 338,-682"/>
<text text-anchor="middle" x="289" y="-660.6" font-family="Courier,monospace" font-size="11.00">kyTicketNote</text>
</a>
</g>
<!-- \\kyTicketNote&#45;&gt;\\kyObjectBase -->
<g id="edge37" class="edge"><title>\\kyTicketNote&#45;&gt;\\kyObjectBase</title>
<path fill="none" stroke="black" d="M239.842,-669.925C205.85,-674.023 160.439,-679.496 124.416,-683.838"/>
<polygon fill="none" stroke="black" points="123.552,-680.417 114.043,-685.089 124.39,-687.367 123.552,-680.417"/>
</g>
<!-- \\kyTicketPost -->
<g id="node26" class="node"><title>\\kyTicketPost</title>
<a xlink:href="kyTicketPost.html" xlink:title="kyTicketPost" target="_parent">
<polygon fill="none" stroke="black" points="338,-628 240,-628 240,-592 338,-592 338,-628"/>
<text text-anchor="middle" x="289" y="-606.6" font-family="Courier,monospace" font-size="11.00">kyTicketPost</text>
</a>
</g>
<!-- \\kyTicketPost&#45;&gt;\\kyObjectBase -->
<g id="edge39" class="edge"><title>\\kyTicketPost&#45;&gt;\\kyObjectBase</title>
<path fill="none" stroke="black" d="M239.779,-621.161C222.581,-625.517 203.265,-630.93 186,-637 160.46,-645.979 132.83,-658.115 110.429,-668.607"/>
<polygon fill="none" stroke="black" points="108.712,-665.548 101.171,-672.989 111.707,-671.875 108.712,-665.548"/>
</g>
<!-- \\kyTicketPriority -->
<g id="node27" class="node"><title>\\kyTicketPriority</title>
<a xlink:href="kyTicketPriority.html" xlink:title="kyTicketPriority" target="_parent">
<polygon fill="none" stroke="black" points="351,-574 227,-574 227,-538 351,-538 351,-574"/>
<text text-anchor="middle" x="289" y="-552.6" font-family="Courier,monospace" font-size="11.00">kyTicketPriority</text>
</a>
</g>
<!-- \\kyTicketPriority&#45;&gt;\\kyObjectBase -->
<g id="edge41" class="edge"><title>\\kyTicketPriority&#45;&gt;\\kyObjectBase</title>
<path fill="none" stroke="black" d="M226.475,-567.345C212.672,-571.211 198.461,-576.313 186,-583 146.597,-604.145 109.516,-640.619 87.0396,-665.265"/>
<polygon fill="none" stroke="black" points="84.3389,-663.034 80.2709,-672.816 89.5516,-667.706 84.3389,-663.034"/>
</g>
<!-- \\kyTicketStatus -->
<g id="node28" class="node"><title>\\kyTicketStatus</title>
<a xlink:href="kyTicketStatus.html" xlink:title="kyTicketStatus" target="_parent">
<polygon fill="none" stroke="black" points="344,-520 234,-520 234,-484 344,-484 344,-520"/>
<text text-anchor="middle" x="289" y="-498.6" font-family="Courier,monospace" font-size="11.00">kyTicketStatus</text>
</a>
</g>
<!-- \\kyTicketStatus&#45;&gt;\\kyObjectBase -->
<g id="edge43" class="edge"><title>\\kyTicketStatus&#45;&gt;\\kyObjectBase</title>
<path fill="none" stroke="black" d="M233.446,-509.412C217.187,-513.406 200.029,-519.55 186,-529 134.686,-563.568 96.675,-627.325 77.9722,-663.695"/>
<polygon fill="none" stroke="black" points="74.7856,-662.241 73.4251,-672.748 81.041,-665.383 74.7856,-662.241"/>
</g>
<!-- \\kyTicketTimeTrack -->
<g id="node29" class="node"><title>\\kyTicketTimeTrack</title>
<a xlink:href="kyTicketTimeTrack.html" xlink:title="kyTicketTimeTrack" target="_parent">
<polygon fill="none" stroke="black" points="354,-466 224,-466 224,-430 354,-430 354,-466"/>
<text text-anchor="middle" x="289" y="-444.6" font-family="Courier,monospace" font-size="11.00">kyTicketTimeTrack</text>
</a>
</g>
<!-- \\kyTicketTimeTrack&#45;&gt;\\kyObjectBase -->
<g id="edge45" class="edge"><title>\\kyTicketTimeTrack&#45;&gt;\\kyObjectBase</title>
<path fill="none" stroke="black" d="M223.252,-456.847C209.993,-460.845 196.821,-466.631 186,-475 122.462,-524.136 87.2109,-616.629 72.8056,-663.001"/>
<polygon fill="none" stroke="black" points="69.4194,-662.108 69.8916,-672.692 76.1229,-664.124 69.4194,-662.108"/>
</g>
<!-- \\kyTicketType -->
<g id="node30" class="node"><title>\\kyTicketType</title>
<a xlink:href="kyTicketType.html" xlink:title="kyTicketType" target="_parent">
<polygon fill="none" stroke="black" points="338,-412 240,-412 240,-376 338,-376 338,-412"/>
<text text-anchor="middle" x="289" y="-390.6" font-family="Courier,monospace" font-size="11.00">kyTicketType</text>
</a>
</g>
<!-- \\kyTicketType&#45;&gt;\\kyObjectBase -->
<g id="edge47" class="edge"><title>\\kyTicketType&#45;&gt;\\kyObjectBase</title>
<path fill="none" stroke="black" d="M239.752,-397.899C221.179,-401.526 200.95,-408.333 186,-421 109.946,-485.441 79.6657,-607.338 69.4656,-662.55"/>
<polygon fill="none" stroke="black" points="65.9715,-662.211 67.6857,-672.666 72.8656,-663.424 65.9715,-662.211"/>
</g>
<!-- \\kyUser -->
<g id="node31" class="node"><title>\\kyUser</title>
<a xlink:href="kyUser.html" xlink:title="kyUser" target="_parent">
<polygon fill="none" stroke="black" points="317,-358 261,-358 261,-322 317,-322 317,-358"/>
<text text-anchor="middle" x="289" y="-336.6" font-family="Courier,monospace" font-size="11.00">kyUser</text>
</a>
</g>
<!-- \\kyUser&#45;&gt;\\kyObjectBase -->
<g id="edge49" class="edge"><title>\\kyUser&#45;&gt;\\kyObjectBase</title>
<path fill="none" stroke="black" d="M260.31,-340.567C237.552,-342.498 206.298,-348.656 186,-367 96.9335,-447.492 73.1837,-599.88 67.0529,-662.767"/>
<polygon fill="none" stroke="black" points="63.5648,-662.479 66.1566,-672.752 70.5368,-663.105 63.5648,-662.479"/>
</g>
<!-- \\kyUserGroup -->
<g id="node32" class="node"><title>\\kyUserGroup</title>
<a xlink:href="kyUserGroup.html" xlink:title="kyUserGroup" target="_parent">
<polygon fill="none" stroke="black" points="334,-304 244,-304 244,-268 334,-268 334,-304"/>
<text text-anchor="middle" x="289" y="-282.6" font-family="Courier,monospace" font-size="11.00">kyUserGroup</text>
</a>
</g>
<!-- \\kyUserGroup&#45;&gt;\\kyObjectBase -->
<g id="edge51" class="edge"><title>\\kyUserGroup&#45;&gt;\\kyObjectBase</title>
<path fill="none" stroke="black" d="M243.462,-288.281C223.586,-291.501 201.362,-298.438 186,-313 133.702,-362.576 86.089,-583.476 70.4171,-662.649"/>
<polygon fill="none" stroke="black" points="66.9071,-662.361 68.4206,-672.847 73.7767,-663.706 66.9071,-662.361"/>
</g>
<!-- \\kyUserOrganization -->
<g id="node33" class="node"><title>\\kyUserOrganization</title>
<a xlink:href="kyUserOrganization.html" xlink:title="kyUserOrganization" target="_parent">
<polygon fill="none" stroke="black" points="358,-250 220,-250 220,-214 358,-214 358,-250"/>
<text text-anchor="middle" x="289" y="-228.6" font-family="Courier,monospace" font-size="11.00">kyUserOrganization</text>
</a>
</g>
<!-- \\kyUserOrganization&#45;&gt;\\kyObjectBase -->
<g id="edge53" class="edge"><title>\\kyUserOrganization&#45;&gt;\\kyObjectBase</title>
<path fill="none" stroke="black" d="M219.769,-239.591C207.278,-243.709 195.292,-249.862 186,-259 127.02,-317.001 82.611,-576.173 69.1989,-662.741"/>
<polygon fill="none" stroke="black" points="65.7016,-662.458 67.6494,-672.872 72.6211,-663.517 65.7016,-662.458"/>
</g>
</g>
</svg>
