<?xml version="1.0" encoding="UTF-8" standalone="no"?>
<!DOCTYPE svg PUBLIC "-//W3C//DTD SVG 1.1//EN"
 "http://www.w3.org/Graphics/SVG/1.1/DTD/svg11.dtd">
<!-- Generated by graphviz version 2.26.3 (20100126.1600)
 -->
<!-- Title: G Pages: 1 -->
<svg width="930pt" height="1192pt"
 viewBox="0.00 0.00 930.00 1192.00" xmlns="http://www.w3.org/2000/svg" xmlns:xlink="http://www.w3.org/1999/xlink">
<g id="graph1" class="graph" transform="scale(1 1) rotate(0) translate(4 1188)">
<title>G</title>
<polygon fill="white" stroke="white" points="-4,5 -4,-1188 927,-1188 927,5 -4,5"/>
<g id="graph2" class="cluster"><title>cluster_default</title>
<polyline fill="none" stroke="none" points="20,-206 902,-206 "/>
<path fill="none" stroke="none" d="M902,-206C908,-206 914,-212 914,-218"/>
<polyline fill="none" stroke="none" points="914,-218 914,-1164 "/>
<path fill="none" stroke="none" d="M914,-1164C914,-1170 908,-1176 902,-1176"/>
<polyline fill="none" stroke="none" points="902,-1176 20,-1176 "/>
<path fill="none" stroke="none" d="M20,-1176C14,-1176 8,-1170 8,-1164"/>
<polyline fill="none" stroke="none" points="8,-1164 8,-218 "/>
<path fill="none" stroke="none" d="M8,-218C8,-212 14,-206 20,-206"/>
</g>
<!-- \\kyConfig -->
<g id="node2" class="node"><title>\\kyConfig</title>
<a xlink:href="kyConfig.html" xlink:title="kyConfig" target="_parent">
<polygon fill="none" stroke="black" points="848,-1168 778,-1168 778,-1132 848,-1132 848,-1168"/>
<text text-anchor="middle" x="813" y="-1146.6" font-family="Courier,monospace" font-size="11.00">kyConfig</text>
</a>
</g>
<!-- \\kyCustomField -->
<g id="node3" class="node"><title>\\kyCustomField</title>
<a xlink:href="kyCustomField.html" xlink:title="kyCustomField" target="_parent">
<polygon fill="none" stroke="black" points="344,-1114 240,-1114 240,-1078 344,-1078 344,-1114"/>
<text text-anchor="middle" x="292" y="-1092.6" font-family="Courier,monospace" font-size="11.00">kyCustomField</text>
</a>
</g>
<!-- \\kyObjectBase -->
<g id="node15" class="node"><title>\\kyObjectBase</title>
<a xlink:href="kyObjectBase.html" xlink:title="«abstract»&lt;br/&gt;kyObjectBase" target="_parent">
<polygon fill="none" stroke="black" points="115,-709 17,-709 17,-673 115,-673 115,-709"/>
<text text-anchor="start" x="32" y="-696.433" font-family="Courier,monospace" font-size="11.00">«abstract»</text>
<text text-anchor="start" x="25" y="-683.233" font-family="Courier,monospace" font-size="11.00">kyObjectBase</text>
</a>
</g>
<!-- \\kyCustomField&#45;&gt;\\kyObjectBase -->
<g id="edge3" class="edge"><title>\\kyCustomField&#45;&gt;\\kyObjectBase</title>
<path fill="none" stroke="black" d="M239.935,-1092.72C221.541,-1089.13 201.976,-1082.19 188,-1069 135.543,-1019.51 87.3635,-798.555 71.4894,-719.36"/>
<polygon fill="none" stroke="black" points="74.8449,-718.287 69.4668,-709.159 67.9785,-719.648 74.8449,-718.287"/>
</g>
<!-- \\kyCustomFieldDate -->
<g id="node4" class="node"><title>\\kyCustomFieldDate</title>
<a xlink:href="kyCustomFieldDate.html" xlink:title="kyCustomFieldDate" target="_parent">
<polygon fill="none" stroke="black" points="623,-1006 493,-1006 493,-970 623,-970 623,-1006"/>
<text text-anchor="middle" x="558" y="-984.6" font-family="Courier,monospace" font-size="11.00">kyCustomFieldDate</text>
</a>
</g>
<!-- \\kyCustomFieldDate&#45;&gt;\\kyCustomField -->
<g id="edge5" class="edge"><title>\\kyCustomFieldDate&#45;&gt;\\kyCustomField</title>
<path fill="none" stroke="black" d="M492.058,-1004.83C483.782,-1007.79 475.573,-1011.18 468,-1015 432.292,-1033.03 432.04,-1051.65 396,-1069 382.89,-1075.31 368.115,-1080.28 353.905,-1084.15"/>
<polygon fill="none" stroke="black" points="352.999,-1080.77 344.186,-1086.65 354.742,-1087.55 352.999,-1080.77"/>
</g>
<!-- \\kyCustomFieldDefinition -->
<g id="node5" class="node"><title>\\kyCustomFieldDefinition</title>
<a xlink:href="kyCustomFieldDefinition.html" xlink:title="kyCustomFieldDefinition" target="_parent">
<polygon fill="none" stroke="black" points="378,-1168 206,-1168 206,-1132 378,-1132 378,-1168"/>
<text text-anchor="middle" x="292" y="-1146.6" font-family="Courier,monospace" font-size="11.00">kyCustomFieldDefinition</text>
</a>
</g>
<!-- \\kyCustomFieldDefinition&#45;&gt;\\kyObjectBase -->
<g id="edge7" class="edge"><title>\\kyCustomFieldDefinition&#45;&gt;\\kyObjectBase</title>
<path fill="none" stroke="black" d="M205.712,-1135.66C199.227,-1132.25 193.199,-1128.09 188,-1123 128.854,-1065.1 83.8659,-805.861 70.2616,-719.267"/>
<polygon fill="none" stroke="black" points="73.6812,-718.478 68.6896,-709.133 66.7639,-719.551 73.6812,-718.478"/>
</g>
<!-- \\kyCustomFieldFile -->
<g id="node6" class="node"><title>\\kyCustomFieldFile</title>
<a xlink:href="kyCustomFieldFile.html" xlink:title="kyCustomFieldFile" target="_parent">
<polygon fill="none" stroke="black" points="623,-1168 493,-1168 493,-1132 623,-1132 623,-1168"/>
<text text-anchor="middle" x="558" y="-1146.6" font-family="Courier,monospace" font-size="11.00">kyCustomFieldFile</text>
</a>
</g>
<!-- \\kyCustomFieldFile&#45;&gt;\\kyCustomField -->
<g id="edge9" class="edge"><title>\\kyCustomFieldFile&#45;&gt;\\kyCustomField</title>
<path fill="none" stroke="black" d="M492.247,-1136.65C450.035,-1128.08 395.558,-1117.02 354.084,-1108.6"/>
<polygon fill="none" stroke="black" points="354.601,-1105.14 344.104,-1106.58 353.208,-1112 354.601,-1105.14"/>
</g>
<!-- \\kyCustomFieldGroupBase -->
<g id="node7" class="node"><title>\\kyCustomFieldGroupBase</title>
<a xlink:href="kyCustomFieldGroupBase.html" xlink:title="«abstract»&lt;br/&gt;kyCustomFieldGroupBase" target="_parent">
<polygon fill="none" stroke="black" points="375,-736 209,-736 209,-700 375,-700 375,-736"/>
<text text-anchor="start" x="258" y="-723.433" font-family="Courier,monospace" font-size="11.00">«abstract»</text>
<text text-anchor="start" x="217.5" y="-710.233" font-family="Courier,monospace" font-size="11.00">kyCustomFieldGroupBase</text>
</a>
</g>
<!-- \\kyCustomFieldGroupBase&#45;&gt;\\kyObjectBase -->
<g id="edge11" class="edge"><title>\\kyCustomFieldGroupBase&#45;&gt;\\kyObjectBase</title>
<path fill="none" stroke="black" d="M208.809,-708.061C181.265,-704.771 151.176,-701.176 125.75,-698.138"/>
<polygon fill="none" stroke="black" points="125.87,-694.628 115.525,-696.917 125.039,-701.578 125.87,-694.628"/>
</g>
<!-- \\kyCustomFieldLinkedSelect -->
<g id="node8" class="node"><title>\\kyCustomFieldLinkedSelect</title>
<a xlink:href="kyCustomFieldLinkedSelect.html" xlink:title="kyCustomFieldLinkedSelect" target="_parent">
<polygon fill="none" stroke="black" points="905,-1114 721,-1114 721,-1078 905,-1078 905,-1114"/>
<text text-anchor="middle" x="813" y="-1092.6" font-family="Courier,monospace" font-size="11.00">kyCustomFieldLinkedSelect</text>
</a>
</g>
<!-- \\kyCustomFieldSelect -->
<g id="node11" class="node"><title>\\kyCustomFieldSelect</title>
<a xlink:href="kyCustomFieldSelect.html" xlink:title="kyCustomFieldSelect" target="_parent">
<polygon fill="none" stroke="black" points="630,-1114 486,-1114 486,-1078 630,-1078 630,-1114"/>
<text text-anchor="middle" x="558" y="-1092.6" font-family="Courier,monospace" font-size="11.00">kyCustomFieldSelect</text>
</a>
</g>
<!-- \\kyCustomFieldLinkedSelect&#45;&gt;\\kyCustomFieldSelect -->
<g id="edge13" class="edge"><title>\\kyCustomFieldLinkedSelect&#45;&gt;\\kyCustomFieldSelect</title>
<path fill="none" stroke="black" d="M720.218,-1096C694.31,-1096 666.331,-1096 641.025,-1096"/>
<polygon fill="none" stroke="black" points="640.73,-1092.5 630.73,-1096 640.73,-1099.5 640.73,-1092.5"/>
</g>
<!-- \\kyCustomFieldMultiSelect -->
<g id="node9" class="node"><title>\\kyCustomFieldMultiSelect</title>
<a xlink:href="kyCustomFieldMultiSelect.html" xlink:title="kyCustomFieldMultiSelect" target="_parent">
<polygon fill="none" stroke="black" points="647,-1060 469,-1060 469,-1024 647,-1024 647,-1060"/>
<text text-anchor="middle" x="558" y="-1038.6" font-family="Courier,monospace" font-size="11.00">kyCustomFieldMultiSelect</text>
</a>
</g>
<!-- \\kyCustomFieldMultiSelect&#45;&gt;\\kyCustomField -->
<g id="edge15" class="edge"><title>\\kyCustomFieldMultiSelect&#45;&gt;\\kyCustomField</title>
<path fill="none" stroke="black" d="M469.056,-1060.06C431.391,-1067.7 388.413,-1076.43 354.232,-1083.37"/>
<polygon fill="none" stroke="black" points="353.484,-1079.95 344.381,-1085.37 354.877,-1086.81 353.484,-1079.95"/>
</g>
<!-- \\kyCustomFieldOption -->
<g id="node10" class="node"><title>\\kyCustomFieldOption</title>
<a xlink:href="kyCustomFieldOption.html" xlink:title="kyCustomFieldOption" target="_parent">
<polygon fill="none" stroke="black" points="364,-1060 220,-1060 220,-1024 364,-1024 364,-1060"/>
<text text-anchor="middle" x="292" y="-1038.6" font-family="Courier,monospace" font-size="11.00">kyCustomFieldOption</text>
</a>
</g>
<!-- \\kyCustomFieldOption&#45;&gt;\\kyObjectBase -->
<g id="edge17" class="edge"><title>\\kyCustomFieldOption&#45;&gt;\\kyObjectBase</title>
<path fill="none" stroke="black" d="M219.499,-1032.78C207.988,-1028.75 196.947,-1023.04 188,-1015 98.6393,-934.652 74.4449,-782.184 68.1335,-719.253"/>
<polygon fill="none" stroke="black" points="71.6155,-718.897 67.2085,-709.262 64.6453,-719.542 71.6155,-718.897"/>
</g>
<!-- \\kyCustomFieldSelect&#45;&gt;\\kyCustomField -->
<g id="edge19" class="edge"><title>\\kyCustomFieldSelect&#45;&gt;\\kyCustomField</title>
<path fill="none" stroke="black" d="M485.314,-1096C444.365,-1096 393.737,-1096 354.566,-1096"/>
<polygon fill="none" stroke="black" points="354.355,-1092.5 344.355,-1096 354.355,-1099.5 354.355,-1092.5"/>
</g>
<!-- \\kyDepartment -->
<g id="node12" class="node"><title>\\kyDepartment</title>
<a xlink:href="kyDepartment.html" xlink:title="kyDepartment" target="_parent">
<polygon fill="none" stroke="black" points="341,-1006 243,-1006 243,-970 341,-970 341,-1006"/>
<text text-anchor="middle" x="292" y="-984.6" font-family="Courier,monospace" font-size="11.00">kyDepartment</text>
</a>
</g>
<!-- \\kyDepartment&#45;&gt;\\kyObjectBase -->
<g id="edge21" class="edge"><title>\\kyDepartment&#45;&gt;\\kyObjectBase</title>
<path fill="none" stroke="black" d="M242.83,-984.279C223.936,-980.689 203.264,-973.862 188,-961 111.665,-896.677 80.9552,-774.72 70.5636,-719.471"/>
<polygon fill="none" stroke="black" points="73.9585,-718.573 68.7486,-709.348 67.0683,-719.808 73.9585,-718.573"/>
</g>
<!-- \\kyException -->
<g id="node13" class="node"><title>\\kyException</title>
<a xlink:href="kyHelpers.html" xlink:title="kyException" target="_parent">
<polygon fill="none" stroke="black" points="858,-304 768,-304 768,-268 858,-268 858,-304"/>
<text text-anchor="middle" x="813" y="-282.6" font-family="Courier,monospace" font-size="11.00">kyException</text>
</a>
</g>
<!-- \\Exception -->
<g id="node45" class="node"><title>\\Exception</title>
<ellipse fill="none" stroke="black" cx="558" cy="-180" rx="61.8445" ry="18"/>
<text text-anchor="middle" x="558" y="-175.9" font-family="Times Roman,serif" font-size="14.00" fill="gray">\Exception</text>
</g>
<!-- \\kyException&#45;&gt;\\Exception -->
<g id="edge23" class="edge"><title>\\kyException&#45;&gt;\\Exception</title>
<path fill="none" stroke="black" d="M767.186,-276.47C751.705,-272.278 734.644,-266.551 720,-259 683.725,-240.294 684.667,-219.925 648,-202 639.722,-197.953 630.643,-194.616 621.535,-191.874"/>
<polygon fill="none" stroke="black" points="622.251,-188.44 611.678,-189.126 620.371,-195.183 622.251,-188.44"/>
</g>
<!-- \\kyUsort -->
<g id="node14" class="node"><title>\\kyUsort</title>
<a xlink:href="kyHelpers.html" xlink:title="kyUsort" target="_parent">
<polygon fill="none" stroke="black" points="845,-601 781,-601 781,-565 845,-565 845,-601"/>
<text text-anchor="middle" x="813" y="-579.6" font-family="Courier,monospace" font-size="11.00">kyUsort</text>
</a>
</g>
<!-- \\kyObjectWithCustomFieldsBase -->
<g id="node16" class="node"><title>\\kyObjectWithCustomFieldsBase</title>
<a xlink:href="kyObjectWithCustomFieldsBase.html" xlink:title="«abstract»&lt;br/&gt;kyObjectWithCustomFieldsBase" target="_parent">
<polygon fill="none" stroke="black" points="395,-844 189,-844 189,-808 395,-808 395,-844"/>
<text text-anchor="start" x="258" y="-831.433" font-family="Courier,monospace" font-size="11.00">«abstract»</text>
<text text-anchor="start" x="197" y="-818.233" font-family="Courier,monospace" font-size="11.00">kyObjectWithCustomFieldsBase</text>
</a>
</g>
<!-- \\kyObjectWithCustomFieldsBase&#45;&gt;\\kyObjectBase -->
<g id="edge25" class="edge"><title>\\kyObjectWithCustomFieldsBase&#45;&gt;\\kyObjectBase</title>
<path fill="none" stroke="black" d="M208.077,-807.958C201.124,-805.346 194.339,-802.376 188,-799 148.347,-777.885 110.941,-741.404 88.2545,-716.749"/>
<polygon fill="none" stroke="black" points="90.7252,-714.262 81.4217,-709.193 85.5335,-718.958 90.7252,-714.262"/>
</g>
<!-- \\kyRESTClient -->
<g id="node17" class="node"><title>\\kyRESTClient</title>
<a xlink:href="kyRESTClient.html" xlink:title="kyRESTClient" target="_parent">
<polygon fill="none" stroke="black" points="862,-925 764,-925 764,-889 862,-889 862,-925"/>
<text text-anchor="middle" x="813" y="-903.6" font-family="Courier,monospace" font-size="11.00">kyRESTClient</text>
</a>
</g>
<!-- \\kyRESTClientInterface -->
<g id="node18" class="node"><title>\\kyRESTClientInterface</title>
<a xlink:href="kyRESTClientInterface.html" xlink:title="kyRESTClientInterface" target="_parent">
<polygon fill="none" stroke="black" points="637,-925 479,-925 479,-889 637,-889 637,-925"/>
<text text-anchor="middle" x="558" y="-903.6" font-family="Courier,monospace" font-size="11.00">kyRESTClientInterface</text>
</a>
</g>
<!-- \\kyRESTClient&#45;&gt;\\kyRESTClientInterface -->
<g id="edge55" class="edge"><title>\\kyRESTClient&#45;&gt;\\kyRESTClientInterface</title>
<path fill="none" stroke="black" stroke-dasharray="1,5" d="M763.833,-907C730.886,-907 686.543,-907 647.453,-907"/>
<polygon fill="none" stroke="black" points="647.112,-903.5 637.111,-907 647.111,-910.5 647.112,-903.5"/>
</g>
<!-- \\kyResultSet -->
<g id="node19" class="node"><title>\\kyResultSet</title>
<a xlink:href="kyResultSet.html" xlink:title="kyResultSet" target="_parent">
<polygon fill="none" stroke="black" points="858,-250 768,-250 768,-214 858,-214 858,-250"/>
<text text-anchor="middle" x="813" y="-228.6" font-family="Courier,monospace" font-size="11.00">kyResultSet</text>
</a>
</g>
<!-- \\Iterator -->
<g id="node63" class="node"><title>\\Iterator</title>
<ellipse fill="none" stroke="black" cx="558" cy="-126" rx="54.8957" ry="18"/>
<text text-anchor="middle" x="558" y="-121.9" font-family="Times Roman,serif" font-size="14.00" fill="gray">\\Iterator</text>
</g>
<!-- \\kyResultSet&#45;&gt;\\Iterator -->
<g id="edge57" class="edge"><title>\\kyResultSet&#45;&gt;\\Iterator</title>
<path fill="none" stroke="black" stroke-dasharray="1,5" d="M779.237,-213.926C746.357,-196.786 694.655,-171.042 648,-153 636.115,-148.404 623.102,-144.099 610.758,-140.335"/>
<polygon fill="none" stroke="black" points="611.618,-136.939 601.035,-137.437 609.619,-143.647 611.618,-136.939"/>
</g>
<!-- \\Countable -->
<g id="node65" class="node"><title>\\Countable</title>
<ellipse fill="none" stroke="black" cx="558" cy="-72" rx="66.2071" ry="18"/>
<text text-anchor="middle" x="558" y="-67.9" font-family="Times Roman,serif" font-size="14.00" fill="gray">\\Countable</text>
</g>
<!-- \\kyResultSet&#45;&gt;\\Countable -->
<g id="edge59" class="edge"><title>\\kyResultSet&#45;&gt;\\Countable</title>
<path fill="none" stroke="black" stroke-dasharray="1,5" d="M795.399,-213.845C766.93,-185.46 707.894,-130.559 648,-99 638.922,-94.217 628.872,-90.1544 618.876,-86.7469"/>
<polygon fill="none" stroke="black" points="619.933,-83.4104 609.342,-83.6786 617.789,-90.0738 619.933,-83.4104"/>
</g>
<!-- \\ArrayAccess -->
<g id="node67" class="node"><title>\\ArrayAccess</title>
<ellipse fill="none" stroke="black" cx="558" cy="-18" rx="75.2406" ry="18"/>
<text text-anchor="middle" x="558" y="-13.9" font-family="Times Roman,serif" font-size="14.00" fill="gray">\\ArrayAccess</text>
</g>
<!-- \\kyResultSet&#45;&gt;\\ArrayAccess -->
<g id="edge61" class="edge"><title>\\kyResultSet&#45;&gt;\\ArrayAccess</title>
<path fill="none" stroke="black" stroke-dasharray="1,5" d="M802.014,-213.827C778.517,-176.505 719.643,-90.8845 648,-45 640.891,-40.447 632.978,-36.6315 624.878,-33.4413"/>
<polygon fill="none" stroke="black" points="625.913,-30.0936 615.318,-29.9768 623.527,-36.6748 625.913,-30.0936"/>
</g>
<!-- \\kyStaff -->
<g id="node20" class="node"><title>\\kyStaff</title>
<a xlink:href="kyStaff.html" xlink:title="kyStaff" target="_parent">
<polygon fill="none" stroke="black" points="324,-952 260,-952 260,-916 324,-916 324,-952"/>
<text text-anchor="middle" x="292" y="-930.6" font-family="Courier,monospace" font-size="11.00">kyStaff</text>
</a>
</g>
<!-- \\kyStaff&#45;&gt;\\kyObjectBase -->
<g id="edge27" class="edge"><title>\\kyStaff&#45;&gt;\\kyObjectBase</title>
<path fill="none" stroke="black" d="M259.569,-932.138C237.452,-929.404 208.558,-922.802 188,-907 124.033,-857.832 88.3549,-764.959 73.8173,-718.673"/>
<polygon fill="none" stroke="black" points="77.1367,-717.559 70.8785,-709.01 70.4396,-719.596 77.1367,-717.559"/>
</g>
<!-- \\kyStaffGroup -->
<g id="node21" class="node"><title>\\kyStaffGroup</title>
<a xlink:href="kyStaffGroup.html" xlink:title="kyStaffGroup" target="_parent">
<polygon fill="none" stroke="black" points="341,-898 243,-898 243,-862 341,-862 341,-898"/>
<text text-anchor="middle" x="292" y="-876.6" font-family="Courier,monospace" font-size="11.00">kyStaffGroup</text>
</a>
</g>
<!-- \\kyStaffGroup&#45;&gt;\\kyObjectBase -->
<g id="edge29" class="edge"><title>\\kyStaffGroup&#45;&gt;\\kyObjectBase</title>
<path fill="none" stroke="black" d="M242.863,-874.213C224.506,-870.329 204.202,-863.84 188,-853 136.29,-818.403 97.8383,-754.38 78.9794,-718.039"/>
<polygon fill="none" stroke="black" points="82.0409,-716.338 74.3975,-709.001 75.7973,-719.503 82.0409,-716.338"/>
</g>
<!-- \\kyTicket -->
<g id="node22" class="node"><title>\\kyTicket</title>
<a xlink:href="kyTicket.html" xlink:title="kyTicket" target="_parent">
<polygon fill="none" stroke="black" points="593,-844 523,-844 523,-808 593,-808 593,-844"/>
<text text-anchor="middle" x="558" y="-822.6" font-family="Courier,monospace" font-size="11.00">kyTicket</text>
</a>
</g>
<!-- \\kyTicket&#45;&gt;\\kyObjectWithCustomFieldsBase -->
<g id="edge31" class="edge"><title>\\kyTicket&#45;&gt;\\kyObjectWithCustomFieldsBase</title>
<path fill="none" stroke="black" d="M522.402,-826C492.389,-826 447.728,-826 405.695,-826"/>
<polygon fill="none" stroke="black" points="405.645,-822.5 395.645,-826 405.645,-829.5 405.645,-822.5"/>
</g>
<!-- \\kyTicketAttachment -->
<g id="node23" class="node"><title>\\kyTicketAttachment</title>
<a xlink:href="kyTicketAttachment.html" xlink:title="kyTicketAttachment" target="_parent">
<polygon fill="none" stroke="black" points="361,-790 223,-790 223,-754 361,-754 361,-790"/>
<text text-anchor="middle" x="292" y="-768.6" font-family="Courier,monospace" font-size="11.00">kyTicketAttachment</text>
</a>
</g>
<!-- \\kyTicketAttachment&#45;&gt;\\kyObjectBase -->
<g id="edge33" class="edge"><title>\\kyTicketAttachment&#45;&gt;\\kyObjectBase</title>
<path fill="none" stroke="black" d="M222.996,-755.772C211.221,-752.524 199.185,-748.898 188,-745 162.259,-736.029 134.402,-723.894 111.814,-713.4"/>
<polygon fill="none" stroke="black" points="113.017,-710.098 102.478,-709.017 110.043,-716.435 113.017,-710.098"/>
</g>
<!-- \\kyTicketCustomFieldGroup -->
<g id="node24" class="node"><title>\\kyTicketCustomFieldGroup</title>
<a xlink:href="kyTicketCustomFieldGroup.html" xlink:title="kyTicketCustomFieldGroup" target="_parent">
<polygon fill="none" stroke="black" points="647,-736 469,-736 469,-700 647,-700 647,-736"/>
<text text-anchor="middle" x="558" y="-714.6" font-family="Courier,monospace" font-size="11.00">kyTicketCustomFieldGroup</text>
</a>
</g>
<!-- \\kyTicketCustomFieldGroup&#45;&gt;\\kyCustomFieldGroupBase -->
<g id="edge35" class="edge"><title>\\kyTicketCustomFieldGroup&#45;&gt;\\kyCustomFieldGroupBase</title>
<path fill="none" stroke="black" d="M468.315,-718C441.567,-718 412.196,-718 385.227,-718"/>
<polygon fill="none" stroke="black" points="385.019,-714.5 375.019,-718 385.019,-721.5 385.019,-714.5"/>
</g>
<!-- \\kyTicketNote -->
<g id="node25" class="node"><title>\\kyTicketNote</title>
<a xlink:href="kyTicketNote.html" xlink:title="kyTicketNote" target="_parent">
<polygon fill="none" stroke="black" points="341,-682 243,-682 243,-646 341,-646 341,-682"/>
<text text-anchor="middle" x="292" y="-660.6" font-family="Courier,monospace" font-size="11.00">kyTicketNote</text>
</a>
</g>
<!-- \\kyTicketNote&#45;&gt;\\kyObjectBase -->
<g id="edge37" class="edge"><title>\\kyTicketNote&#45;&gt;\\kyObjectBase</title>
<path fill="none" stroke="black" d="M242.961,-669.859C208.549,-673.97 162.335,-679.491 125.765,-683.86"/>
<polygon fill="none" stroke="black" points="125.238,-680.398 115.723,-685.06 126.068,-687.349 125.238,-680.398"/>
</g>
<!-- \\kyTicketPost -->
<g id="node26" class="node"><title>\\kyTicketPost</title>
<a xlink:href="kyTicketPost.html" xlink:title="kyTicketPost" target="_parent">
<polygon fill="none" stroke="black" points="341,-628 243,-628 243,-592 341,-592 341,-628"/>
<text text-anchor="middle" x="292" y="-606.6" font-family="Courier,monospace" font-size="11.00">kyTicketPost</text>
</a>
</g>
<!-- \\kyTicketPost&#45;&gt;\\kyObjectBase -->
<g id="edge39" class="edge"><title>\\kyTicketPost&#45;&gt;\\kyObjectBase</title>
<path fill="none" stroke="black" d="M242.833,-621.02C225.337,-625.398 205.615,-630.861 188,-637 162.259,-645.971 134.402,-658.106 111.814,-668.6"/>
<polygon fill="none" stroke="black" points="110.043,-665.565 102.478,-672.983 113.017,-671.902 110.043,-665.565"/>
</g>
<!-- \\kyTicketPriority -->
<g id="node27" class="node"><title>\\kyTicketPriority</title>
<a xlink:href="kyTicketPriority.html" xlink:title="kyTicketPriority" target="_parent">
<polygon fill="none" stroke="black" points="354,-574 230,-574 230,-538 354,-538 354,-574"/>
<text text-anchor="middle" x="292" y="-552.6" font-family="Courier,monospace" font-size="11.00">kyTicketPriority</text>
</a>
</g>
<!-- \\kyTicketPriority&#45;&gt;\\kyObjectBase -->
<g id="edge41" class="edge"><title>\\kyTicketPriority&#45;&gt;\\kyObjectBase</title>
<path fill="none" stroke="black" d="M229.435,-567.164C215.326,-571.05 200.761,-576.205 188,-583 148.347,-604.115 110.941,-640.596 88.2545,-665.251"/>
<polygon fill="none" stroke="black" points="85.5335,-663.042 81.4217,-672.807 90.7252,-667.738 85.5335,-663.042"/>
</g>
<!-- \\kyTicketStatus -->
<g id="node28" class="node"><title>\\kyTicketStatus</title>
<a xlink:href="kyTicketStatus.html" xlink:title="kyTicketStatus" target="_parent">
<polygon fill="none" stroke="black" points="347,-520 237,-520 237,-484 347,-484 347,-520"/>
<text text-anchor="middle" x="292" y="-498.6" font-family="Courier,monospace" font-size="11.00">kyTicketStatus</text>
</a>
</g>
<!-- \\kyTicketStatus&#45;&gt;\\kyObjectBase -->
<g id="edge43" class="edge"><title>\\kyTicketStatus&#45;&gt;\\kyObjectBase</title>
<path fill="none" stroke="black" d="M236.471,-509.23C219.897,-513.219 202.341,-519.405 188,-529 136.29,-563.597 97.8383,-627.62 78.9794,-663.961"/>
<polygon fill="none" stroke="black" points="75.7973,-662.497 74.3975,-672.999 82.0409,-665.662 75.7973,-662.497"/>
</g>
<!-- \\kyTicketTimeTrack -->
<g id="node29" class="node"><title>\\kyTicketTimeTrack</title>
<a xlink:href="kyTicketTimeTrack.html" xlink:title="kyTicketTimeTrack" target="_parent">
<polygon fill="none" stroke="black" points="357,-466 227,-466 227,-430 357,-430 357,-466"/>
<text text-anchor="middle" x="292" y="-444.6" font-family="Courier,monospace" font-size="11.00">kyTicketTimeTrack</text>
</a>
</g>
<!-- \\kyTicketTimeTrack&#45;&gt;\\kyObjectBase -->
<g id="edge45" class="edge"><title>\\kyTicketTimeTrack&#45;&gt;\\kyObjectBase</title>
<path fill="none" stroke="black" d="M226.455,-456.539C212.792,-460.548 199.166,-466.417 188,-475 124.033,-524.168 88.3549,-617.041 73.8173,-663.327"/>
<polygon fill="none" stroke="black" points="70.4396,-662.404 70.8785,-672.99 77.1367,-664.441 70.4396,-662.404"/>
</g>
<!-- \\kyTicketType -->
<g id="node30" class="node"><title>\\kyTicketType</title>
<a xlink:href="kyTicketType.html" xlink:title="kyTicketType" target="_parent">
<polygon fill="none" stroke="black" points="341,-412 243,-412 243,-376 341,-376 341,-412"/>
<text text-anchor="middle" x="292" y="-390.6" font-family="Courier,monospace" font-size="11.00">kyTicketType</text>
</a>
</g>
<!-- \\kyTicketType&#45;&gt;\\kyObjectBase -->
<g id="edge47" class="edge"><title>\\kyTicketType&#45;&gt;\\kyObjectBase</title>
<path fill="none" stroke="black" d="M242.83,-397.721C223.936,-401.311 203.264,-408.138 188,-421 111.665,-485.323 80.9552,-607.28 70.5636,-662.529"/>
<polygon fill="none" stroke="black" points="67.0683,-662.192 68.7486,-672.652 73.9585,-663.427 67.0683,-662.192"/>
</g>
<!-- \\kyUser -->
<g id="node31" class="node"><title>\\kyUser</title>
<a xlink:href="kyUser.html" xlink:title="kyUser" target="_parent">
<polygon fill="none" stroke="black" points="320,-358 264,-358 264,-322 320,-322 320,-358"/>
<text text-anchor="middle" x="292" y="-336.6" font-family="Courier,monospace" font-size="11.00">kyUser</text>
</a>
</g>
<!-- \\kyUser&#45;&gt;\\kyObjectBase -->
<g id="edge49" class="edge"><title>\\kyUser&#45;&gt;\\kyObjectBase</title>
<path fill="none" stroke="black" d="M263.05,-340.506C240.082,-342.401 208.53,-348.541 188,-367 98.6393,-447.348 74.4449,-599.816 68.1335,-662.747"/>
<polygon fill="none" stroke="black" points="64.6453,-662.458 67.2085,-672.738 71.6155,-663.103 64.6453,-662.458"/>
</g>
<!-- \\kyUserGroup -->
<g id="node32" class="node"><title>\\kyUserGroup</title>
<a xlink:href="kyUserGroup.html" xlink:title="kyUserGroup" target="_parent">
<polygon fill="none" stroke="black" points="337,-304 247,-304 247,-268 337,-268 337,-304"/>
<text text-anchor="middle" x="292" y="-282.6" font-family="Courier,monospace" font-size="11.00">kyUserGroup</text>
</a>
</g>
<!-- \\kyUserGroup&#45;&gt;\\kyObjectBase -->
<g id="edge51" class="edge"><title>\\kyUserGroup&#45;&gt;\\kyObjectBase</title>
<path fill="none" stroke="black" d="M246.306,-288.152C226.176,-291.335 203.604,-298.279 188,-313 135.543,-362.49 87.3635,-583.445 71.4894,-662.64"/>
<polygon fill="none" stroke="black" points="67.9785,-662.352 69.4668,-672.841 74.8449,-663.713 67.9785,-662.352"/>
</g>
<!-- \\kyUserOrganization -->
<g id="node33" class="node"><title>\\kyUserOrganization</title>
<a xlink:href="kyUserOrganization.html" xlink:title="kyUserOrganization" target="_parent">
<polygon fill="none" stroke="black" points="361,-250 223,-250 223,-214 361,-214 361,-250"/>
<text text-anchor="middle" x="292" y="-228.6" font-family="Courier,monospace" font-size="11.00">kyUserOrganization</text>
</a>
</g>
<!-- \\kyUserOrganization&#45;&gt;\\kyObjectBase -->
<g id="edge53" class="edge"><title>\\kyUserOrganization&#45;&gt;\\kyObjectBase</title>
<path fill="none" stroke="black" d="M222.926,-239.233C210.023,-243.358 197.597,-249.604 188,-259 128.854,-316.903 83.8659,-576.139 70.2616,-662.733"/>
<polygon fill="none" stroke="black" points="66.7639,-662.449 68.6896,-672.867 73.6812,-663.522 66.7639,-662.449"/>
</g>
</g>
</svg>
